<?xml version="1.0" standalone="no"?>
<!DOCTYPE svg PUBLIC "-//W3C//DTD SVG 20010904//EN"
 "http://www.w3.org/TR/2001/REC-SVG-20010904/DTD/svg10.dtd">
<svg version="1.0" xmlns="http://www.w3.org/2000/svg"
 width="1000.000000pt" height="1000.000000pt" viewBox="0 0 1000.000000 1000.000000"
 preserveAspectRatio="xMidYMid meet">
<metadata>
Created by potrace 1.14, written by Peter Selinger 2001-2017
</metadata>
<g transform="translate(0.000000,1000.000000) scale(0.100000,-0.100000)"
fill="#000000" stroke="none">
<path d="M1795 8035 c-7 -5 -66 -102 -130 -215 -65 -113 -159 -275 -208 -360
-202 -349 -237 -410 -258 -447 -27 -48 -310 -536 -338 -583 -11 -19 -24 -42
-28 -50 -4 -8 -21 -39 -39 -69 -39 -64 -55 -22 135 -349 75 -131 140 -244 144
-252 4 -8 18 -33 32 -55 13 -22 41 -69 61 -105 21 -36 117 -202 214 -370 97
-168 230 -398 295 -512 l119 -206 209 0 208 0 53 92 c29 50 114 197 189 326
176 306 159 277 257 446 47 81 97 168 112 193 15 25 31 52 35 60 3 8 35 64 71
125 143 245 294 508 304 531 9 21 -1 43 -87 192 -53 92 -100 172 -105 176 -4
5 -95 9 -201 9 -240 -1 -229 0 -229 -10 0 -5 -39 -76 -86 -158 -48 -82 -94
-162 -104 -179 -99 -173 -258 -448 -276 -477 -13 -21 -24 -40 -24 -42 0 -11
-112 -196 -118 -196 -6 1 -87 139 -220 374 -13 22 -51 88 -85 146 -34 58 -71
124 -83 146 l-22 42 20 33 c18 30 293 504 338 583 49 87 136 235 156 268 13
21 24 40 24 43 0 2 18 34 40 69 21 36 51 86 65 113 14 26 31 57 38 68 22 34
53 88 87 150 18 33 39 69 46 80 12 18 2 39 -91 200 l-105 180 -201 0 c-122 0
-207 -4 -214 -10z"/>
<path d="M3451 8040 c-7 -5 -101 -158 -101 -164 0 -2 -25 -46 -55 -97 l-54
-93 23 -41 c12 -22 58 -101 101 -175 43 -74 86 -148 95 -165 10 -16 41 -70 70
-120 29 -49 62 -108 75 -130 12 -22 73 -128 135 -235 62 -107 122 -211 133
-230 11 -19 35 -62 54 -95 19 -33 42 -73 52 -90 10 -16 34 -57 53 -91 l35 -61
-57 -99 c-119 -206 -479 -830 -496 -861 -68 -116 -150 -260 -153 -268 -2 -5
-9 -17 -16 -25 -7 -8 -26 -40 -43 -71 -16 -32 -37 -68 -45 -80 -19 -29 -21
-23 96 -224 l93 -160 210 -2 209 -1 90 156 c49 87 102 177 116 202 43 72 207
355 236 407 14 27 45 80 68 118 22 39 44 77 48 85 4 8 17 31 28 50 26 42 191
328 267 460 30 52 70 122 90 155 19 33 47 83 62 110 l28 50 -124 214 c-68 118
-124 215 -124 217 0 1 -21 38 -46 81 -26 43 -87 148 -136 233 -48 85 -92 162
-97 170 -23 36 -106 179 -129 220 -24 44 -109 190 -151 260 -11 19 -25 44 -30
55 -6 11 -52 92 -104 180 l-93 160 -203 0 c-111 0 -206 -2 -210 -5z"/>
<path d="M5302 5526 c-4 -6 -12 -20 -18 -31 -6 -11 -49 -86 -96 -166 -63 -109
-83 -151 -77 -165 5 -10 50 -91 101 -179 l94 -160 1036 -3 1036 -2 101 174
c56 96 101 181 101 188 0 7 -11 30 -25 50 -14 20 -25 39 -25 42 0 3 -24 46
-54 96 -30 50 -57 99 -61 109 -3 9 -14 27 -24 38 -19 20 -23 21 -1051 20 -741
0 -1033 -3 -1038 -11z"/>
<path d="M8591 5496 c-39 -68 -284 -493 -439 -761 -80 -137 -154 -266 -165
-285 -10 -19 -43 -75 -72 -125 -29 -49 -61 -106 -72 -125 -11 -19 -73 -127
-138 -239 -65 -112 -118 -209 -118 -215 0 -6 49 -94 108 -196 59 -102 116
-201 127 -220 11 -19 36 -62 55 -95 19 -33 38 -67 43 -75 5 -8 69 -118 142
-244 73 -127 146 -253 161 -280 16 -28 34 -60 41 -71 7 -11 27 -45 44 -75 16
-30 93 -163 169 -295 l140 -240 207 0 207 0 93 160 c51 88 98 169 104 181 9
17 4 32 -29 90 -23 38 -51 87 -64 109 -41 73 -91 159 -150 260 -32 55 -67 116
-78 135 -10 19 -77 134 -147 255 -70 121 -137 237 -149 258 -31 55 -51 90
-128 223 l-70 122 17 28 c20 33 309 535 348 604 14 25 44 77 67 115 22 39 44
77 48 85 4 8 15 29 26 45 18 30 155 266 195 337 12 20 45 77 73 127 l53 90
-103 178 -103 178 -210 1 -210 1 -23 -41z"/>
<path d="M4691 4460 c-7 -4 -285 -481 -381 -654 l-33 -59 25 -46 c13 -25 116
-203 228 -396 112 -192 217 -375 233 -405 17 -30 47 -82 67 -115 20 -33 39
-67 43 -75 4 -8 18 -33 32 -55 14 -22 28 -47 32 -55 5 -13 75 -134 103 -180
16 -27 73 -124 84 -145 6 -11 50 -88 98 -170 l87 -150 1030 0 c744 0 1033 3
1041 11 17 17 200 335 200 347 0 6 -45 90 -101 186 l-101 176 -825 0 c-540 0
-827 3 -833 10 -4 5 -32 53 -62 105 -30 52 -98 169 -150 260 -53 91 -105 181
-116 200 -11 19 -68 118 -127 220 -163 281 -162 278 -144 306 7 13 41 70 74
126 33 57 65 112 72 123 6 11 19 34 28 51 18 35 21 26 -52 149 -16 28 -32 57
-36 65 -4 8 -29 51 -55 95 l-47 80 -203 0 c-112 0 -207 -2 -211 -5z"/>
</g>
</svg>
