<?xml version="1.0" encoding="utf-8"?>
<!-- Generator: Adobe Illustrator 27.5.0, SVG Export Plug-In . SVG Version: 6.00 Build 0)  -->
<svg version="1.1" xmlns="http://www.w3.org/2000/svg" xmlns:xlink="http://www.w3.org/1999/xlink" x="0px" y="0px"
	 viewBox="0 0 2200 2200" style="enable-background:new 0 0 2200 2200;" xml:space="preserve">
<g id="background">
	<rect style="fill:#FFFFFF;" width="2200" height="2200"/>
</g>
<g id="Objects">
	<g>
		<g>
			<path d="M1388.745,727.228c0-23.137-18.756-41.893-41.893-41.893c-3.781,0-7.442,0.509-10.926,1.449v-32.572
				c0-138.541-75.338-228.717-235.928-228.717s-235.927,90.176-235.927,228.717v32.572c-3.484-0.939-7.145-1.449-10.926-1.449
				c-23.137,0-41.893,18.756-41.893,41.893c0,19.883,24.554,90.548,54.248,110.032c13.883,126.323,126.822,224.85,234.498,224.85
				c111.997,0,221.185-98.547,234.555-224.889C1364.223,817.684,1388.745,747.098,1388.745,727.228z"/>
			<path d="M1573.53,1445.778C1449.083,1560.708,1282.748,1630.9,1100,1630.9s-349.083-70.192-473.53-185.122
				c4.108-126.388,54.977-222.365,105.123-259.98c104.876-78.636,246.602-118.13,246.602-118.13s43.354,27.086,121.804,27.086
				c77.232,0,120.442-26.24,121.763-27.065c0.021-0.021,0.041-0.021,0.041-0.021s141.727,39.494,246.602,118.13
				C1518.553,1223.412,1569.422,1319.39,1573.53,1445.778z"/>
			<path style="fill:#E22929;" d="M1813.114,714.682c-38.984-92.165-94.783-174.931-165.849-245.997
				c-71.067-71.066-153.833-126.867-245.998-165.849C1305.827,262.468,1204.466,242,1100,242s-205.827,20.468-301.267,60.836
				c-92.165,38.982-174.931,94.782-245.998,165.849c-71.065,71.066-126.865,153.832-165.849,245.997
				c-40.367,95.44-60.836,196.801-60.836,301.267s20.469,205.827,60.836,301.267c38.984,92.165,94.783,174.931,165.849,245.998
				c71.067,71.065,153.833,126.865,245.998,165.849c95.44,40.367,196.801,60.836,301.267,60.836s205.827-20.469,301.267-60.836
				c92.165-38.984,174.931-94.783,245.998-165.849c71.065-71.067,126.865-153.833,165.849-245.998
				c40.367-95.44,60.836-196.801,60.836-301.267S1853.481,810.122,1813.114,714.682z M398.718,1015.949
				c0-187.32,72.945-363.427,205.4-495.882S912.68,314.667,1100,314.667c175.157,0,340.501,63.794,469.529,180.369l-990.442,990.442
				C462.511,1356.45,398.718,1191.106,398.718,1015.949z M1595.881,1511.831c-132.455,132.455-308.562,205.4-495.881,205.4
				c-175.157,0-340.501-63.792-469.529-180.369l990.442-990.442c116.576,129.027,180.368,294.372,180.368,469.529
				C1801.281,1203.269,1728.337,1379.375,1595.881,1511.831z"/>
		</g>
		<ellipse style="fill:#C5D3DD;" cx="1100" cy="1920.738" rx="626.76" ry="37.262"/>
	</g>
</g>
</svg>
