<svg xmlns="http://www.w3.org/2000/svg" viewBox="0 0 500 500"><g id="freepik--Floor--inject-73"><path id="freepik--floor--inject-73" d="M415.28,252.94c-91.33-52.51-239.41-52.51-330.75,0s-91.33,137.66,0,190.17,239.41,52.52,330.74,0S506.61,305.46,415.28,252.94Z" style="fill:#f5f5f5"></path></g><g id="freepik--Shadows--inject-73"><polygon id="freepik--Shadow--inject-73" points="239.04 368.96 138.7 310.94 292.52 222.13 392.86 280.15 239.04 368.96" style="fill:#e0e0e0"></polygon><polygon id="freepik--shadow--inject-73" points="216.38 364.13 107.69 426.88 32.96 383.74 141.66 320.98 216.38 364.13" style="fill:#e0e0e0"></polygon><ellipse id="freepik--shadow--inject-73" cx="406.84" cy="371.43" rx="60.97" ry="35.2" style="fill:#e0e0e0"></ellipse><path id="freepik--shadow--inject-73" d="M266.32,447.85l81.38-47c1.36-.79,1.36-2.06,0-2.84l-61.35-35.86a5.44,5.44,0,0,0-4.91,0l-81.38,47c-1.36.78-1.36,2.05,0,2.83l61.35,35.87A5.44,5.44,0,0,0,266.32,447.85Z" style="fill:#e6e6e6"></path></g><g id="freepik--Desk--inject-73"><g id="freepik--desk--inject-73"><g id="freepik--Table--inject-73"><polygon points="290.18 160.23 290.19 156.81 290.19 156.81 290.19 130.71 293.2 129.03 293.2 158.56 375.75 206.29 375.75 209.78 293.2 161.98 293.2 228.3 290.19 229.97 290.19 160.23 290.18 160.23" style="fill:#C6993A"></polygon><polygon points="290.18 160.23 290.19 156.81 290.19 156.81 290.19 130.71 293.2 129.03 293.2 158.56 375.75 206.29 375.75 209.78 293.2 161.98 293.2 228.3 290.19 229.97 290.19 160.23 290.18 160.23" style="opacity:0.4"></polygon><path d="M287.17,125.61V228.3l3,1.67V163.6l85.55,49.54v66.32l3,1.8V182h0v-3.42Zm3,11.65,85.55,49.28v23.23l-85.55-49.54Z" style="fill:#C6993A"></path><path d="M287.17,125.61V228.3l3,1.67V163.6l85.55,49.54v66.32l3,1.8V182h0v-3.42Zm3,11.65,85.55,49.28v23.23l-85.55-49.54Z" style="opacity:0.2"></path><polygon points="152.8 239.8 152.8 236.38 152.8 236.38 152.8 210.28 155.81 208.6 155.81 238.12 238.36 285.86 238.36 289.34 155.81 241.54 155.81 307.86 152.8 309.54 152.8 239.8 152.8 239.8" style="fill:#C6993A"></polygon><polygon points="152.8 239.8 152.8 236.38 152.8 236.38 152.8 210.28 155.81 208.6 155.81 238.12 238.36 285.86 238.36 289.34 155.81 241.54 155.81 307.86 152.8 309.54 152.8 239.8 152.8 239.8" style="opacity:0.4"></polygon><polygon points="378.76 178.82 378.76 178.57 378.98 178.69 381.77 177.08 381.77 180.25 381.77 187.45 381.77 279.52 378.76 281.26 378.76 189.18 244.39 266.51 244.39 359.09 241.38 360.83 241.38 268.25 241.38 258.14 241.38 258.13 378.76 178.82" style="fill:#C6993A"></polygon><path d="M149.79,205.18V307.86l3,1.68V243.16l85.56,49.54V359l3,1.8V258.14Zm3,34.62v-23l85.56,49.27v23.24Z" style="fill:#C6993A"></path><path d="M149.79,205.18V307.86l3,1.68V243.16l85.56,49.54V359l3,1.8V258.14Zm3,34.62v-23l85.56,49.27v23.24Z" style="opacity:0.2"></path><polygon points="241.38 258.14 149.79 205.18 290.19 124.12 381.77 177.08 241.38 258.14" style="fill:#C6993A"></polygon><polygon points="241.38 258.14 149.79 205.18 290.19 124.12 381.77 177.08 241.38 258.14" style="opacity:0.1"></polygon><polygon points="241.38 258.14 149.79 205.18 290.19 124.12 381.77 177.08 241.38 258.14" style="fill:#fff;opacity:0.5"></polygon></g><g id="freepik--Keyboard--inject-73"><path id="freepik--shadow--inject-73" d="M239.77,212.65l25,14.59a3,3,0,0,0,2.68,0l70.45-40.62a.82.82,0,0,0,0-1.55l-25.05-14.58a3,3,0,0,0-2.67,0L239.77,211.1A.82.82,0,0,0,239.77,212.65Z" style="opacity:0.2"></path><g id="freepik--keyboard--inject-73"><path d="M336,182.08a1,1,0,0,0-.55-.77l-22.3-12.87a3,3,0,0,0-2.66,0l-68,39.35a.93.93,0,0,0-.55.77v2.33a.93.93,0,0,0,.55.77l22.28,12.87a3,3,0,0,0,2.66,0l68.05-39.28a1,1,0,0,0,.55-.77Z" style="fill:#263238"></path><path d="M264.76,222.13l-22.28-12.81a.8.8,0,0,1,0-1.53l68-39.35a3,3,0,0,1,2.66,0l22.3,12.87a.82.82,0,0,1,0,1.54l-68.05,39.28A2.93,2.93,0,0,1,264.76,222.13Z" style="fill:#37474f"></path><path d="M266,222.45v2.39a2.69,2.69,0,0,1-1.25-.31l-22.28-12.87a.93.93,0,0,1-.55-.76v-2.35a.94.94,0,0,0,.55.77l22.28,12.82A2.82,2.82,0,0,0,266,222.45Z" style="fill:#263238"></path><path d="M266.18,220.11h0l-2.21-1.28,3-1.73,2.28,1.29-3,1.72Zm-3.45-2h-.05l-2.2-1.27,2.35-1.36,2.28,1.28-2.35,1.36Zm7.64-.42h-.05l-2.21-1.27,2.35-1.36,2.28,1.28-2.34,1.36Zm-11.09-1.57h0L257,214.83l3.8-2.19,2.28,1.28-3.79,2.19Zm7-.05h0L264,214.78l1.87-1.07,2.28,1.28-1.86,1.08Zm7.64-.42h-.05l-2.21-1.28L274,213l2.28,1.28-2.34,1.35Zm-4.58-1.35s-.05,0-.05,0L267.07,213l1.87-1.08,2.28,1.28-1.86,1.08Zm-13.51-.18h0l-2.2-1.27,3-1.73,2.28,1.28-3,1.73Zm21.63-.52h-.05l-2.21-1.27,17-9.81,2.28,1.29-17,9.8Zm-13.19-.36h-.05L262,212l1.87-1.07,2.28,1.28-1.87,1.07Zm8.12-.7h-.05l-2.2-1.27,1.87-1.08,2.28,1.28-1.87,1.08Zm-20-.41h-.05l-2.21-1.28,1.87-1.07,2.28,1.28-1.86,1.08Zm7.64-.42H260l-2.21-1.28,1.87-1.07,2.28,1.28L260,211.71Zm7.31-.24h-.05l-2.21-1.27,1.87-1.08,2.28,1.28-1.86,1.08Zm8.12-.7s-.05,0-.05,0l-2.21-1.27,1.87-1.08,2.28,1.29-1.86,1.07Zm-20-.41h-.06l-2.2-1.27L255,208l2.28,1.28-1.87,1.08Zm7.63-.42H263l-2.2-1.27,1.86-1.08,2.29,1.28-1.87,1.08Zm7.32-.23h-.05l-2.21-1.27,1.87-1.08,2.28,1.28-1.87,1.08Zm-22.2,0h-.05l-2.21-1.28,2.35-1.35,2.28,1.28-2.35,1.35Zm30.32-.7h-.05l-2.21-1.27,1.87-1.08,2.28,1.28L278.52,209Zm-20-.41h-.05l-2.2-1.27,1.86-1.08,2.28,1.28-1.86,1.08Zm7.64-.42h-.05l-2.21-1.27,1.87-1.08L268,207.1l-1.86,1.08Zm7.31-.24h-.05l-2.2-1.27,1.87-1.08,2.28,1.29-1.87,1.07Zm8.12-.7h-.05L279.3,206l1.86-1.08,2.29,1.29-1.87,1.07ZM253,206.9h0l-2.21-1.28,1.87-1.08,2.28,1.29-1.87,1.07Zm8.5-.07s-.05,0-.05,0l-2.21-1.27,1.87-1.08,2.28,1.29-1.86,1.07Zm7.64-.42h-.05l-2.21-1.27,1.87-1.08,2.28,1.28-1.87,1.08Zm7.31-.23h-.05l-2.21-1.27,1.87-1.08,2.28,1.28-1.86,1.08Zm8.12-.7h-.05l-2.21-1.27,1.87-1.08,2.28,1.28-1.86,1.08Zm-28.51-.35h-.05l-2.2-1.27,1.86-1.08,2.28,1.28-1.86,1.08Zm8.49-.06h0l-2.21-1.27,1.87-1.08,2.28,1.28-1.87,1.08Zm7.64-.42h-.05l-2.2-1.27,1.86-1.08,2.28,1.28-1.86,1.08Zm7.32-.24h-.05l-2.21-1.28,1.87-1.08,2.28,1.29-1.87,1.07Zm8.12-.69h-.05l-2.21-1.28,1.87-1.08,2.28,1.29-1.87,1.07Zm-28.51-.35h-.05l-2.21-1.28,1.87-1.07,2.28,1.28-1.86,1.08Zm8.49-.07h0L265.39,202l1.87-1.08,2.28,1.29-1.86,1.07Zm28-.19h-.05l-2.2-1.27,2.35-1.36,2.28,1.28-2.35,1.36Zm-20.33-.23h-.05L273,201.6l1.87-1.08,2.28,1.29-1.87,1.07Zm7.31-.23h-.05l-2.2-1.27,1.86-1.08,2.29,1.28-1.87,1.08Zm8.12-.7h-.05l-2.21-1.27,1.87-1.08,2.29,1.28L290.75,202Zm-28.51-.35h0l-2.2-1.27,1.87-1.08,2.28,1.28-1.87,1.08Zm8.5-.06h0l-2.21-1.27,1.87-1.08,2.28,1.28-1.87,1.08Zm7.63-.42h0l-2.2-1.27,1.87-1.08,2.28,1.28-1.87,1.08Zm20.82-.05h-.05l-2.2-1.28,2.35-1.35,2.28,1.28-2.35,1.35Zm-13.5-.18h-.05l-2.21-1.28,1.87-1.08,2.28,1.29-1.86,1.07Zm8.12-.7h0l-2.21-1.28,1.87-1.07,2.28,1.28-1.86,1.07Zm-20-.41h-.05l-2.2-1.28,1.86-1.08,2.29,1.29-1.87,1.07Zm7.64-.43h0l-2.21-1.28L281,197l2.28,1.29-1.86,1.07Zm7.32-.23h-.05l-2.21-1.27,1.87-1.08,2.28,1.28-1.87,1.08Zm-22.12-.05h-.05l-2.21-1.27,1.87-1.08,2.28,1.28-1.86,1.08Zm36.1,0h-.05l-2.2-1.27,2.35-1.36,2.28,1.29L302.73,199Zm-5.87-.6h-.05l-2.2-1.27,1.87-1.08,2.28,1.28-1.87,1.08Zm-20-.41h-.05l-2.21-1.27,1.87-1.08,2.28,1.28L276.85,198Zm7.64-.42h0l-2.21-1.27,1.87-1.08,2.28,1.28-1.87,1.08Zm7.31-.23h0l-2.21-1.28,1.87-1.07,2.28,1.28-1.86,1.07Zm-22.11-.05h-.05L267.4,196l1.87-1.08,2.28,1.29-1.87,1.07Zm36.58-.33h-.05L304,195.7l3-1.73,2.28,1.28-3,1.73Zm-6.35-.32h-.05l-2.21-1.28,5.89-3.4,2.28,1.29-5.88,3.39Zm-20-.41h0L277.62,195l1.87-1.07,2.28,1.28-1.87,1.07Zm7.64-.42h-.05l-2.2-1.28,1.86-1.08,2.29,1.29-1.87,1.07Zm7.32-.24h-.05l-2.21-1.27,1.87-1.08,2.28,1.28-1.86,1.08Zm-22.12-.05h0l-2.2-1.27,1.86-1.08,2.29,1.28-1.87,1.08Zm10.22-1.06h-.05l-2.2-1.27,1.86-1.08,2.29,1.28L283,194.48Zm28.14-.29H311l-2.21-1.28,1.87-1.08,2.28,1.29-1.87,1.07Zm-20.5-.13h-.05l-2.21-1.27,1.87-1.08,2.28,1.28-1.86,1.08Zm7.31-.23h0l-2.21-1.28,1.7-1a.38.38,0,0,0,.2-.31.4.4,0,0,0-.21-.33l-2.9-1.67,2.2-1.26,5.73,3.27-4.44,2.56Zm-22.11-.05h0l-2.21-1.28,1.87-1.08,2.28,1.29-1.86,1.07ZM286,192.72h-.05l-2.21-1.28,1.87-1.07,2.28,1.28L286,192.71Zm28.13-.29h-.05l-2.2-1.27,1.86-1.08,2.29,1.28-1.87,1.08Zm-20.49-.13h-.05L291.37,191l1.87-1.07,2.28,1.28-1.87,1.07Zm-13.47-1.06s-.05,0-.05,0L277.9,190l1.87-1.08,2.28,1.29-1.87,1.07ZM289,191H289l-2.2-1.27,1.87-1.08,2.28,1.28L289.07,191Zm28.14-.28h-.05l-2.21-1.28,1.87-1.08,2.28,1.29-1.86,1.07Zm-6.51-.23h-.05l-2.21-1.28,1.87-1.08,2.28,1.29-1.86,1.07Zm-27.46-1h0L281,188.2l1.87-1.08,2.28,1.28-1.86,1.08Zm8.89-.29h-.05l-2.2-1.27,3.31-1.92,2.28,1.28-3.31,1.92Zm28.78-.66h-.05l-2.21-1.27,4.93-2.85,2.28,1.29-4.92,2.84Zm-20.18-.32h-.05l-2.2-1.27,1.87-1.08,2.28,1.28-1.87,1.08Zm-14.43-.5h0L284,186.43l1.87-1.08,2.28,1.29-1.86,1.07Zm31.15-1.18h-.05l-2.2-1.27,1.87-1.08,2.28,1.28-1.87,1.08Zm-13.66-.08h-.05l-2.21-1.28,1.87-1.08,2.28,1.29-1.86,1.07Zm-6.51-.23h-.05L295,184.93l1.87-1.08,2.28,1.29-1.86,1.07Zm-7.93-.27h-.05l-2.2-1.27,1.87-1.08,2.28,1.28L289.35,186ZM327,185h-.05l-2.2-1.27,1.86-1.08,2.28,1.28L327,185Zm-6.51-.23h-.05l-2.21-1.27,1.87-1.08,2.28,1.28-1.86,1.08Zm-13.66-.09h-.06l-2.2-1.27,1.87-1.08,2.28,1.28-1.87,1.08Zm7.15-.14h-.05l-2.21-1.27,1.87-1.08,2.28,1.28L314,184.54Zm-13.66-.09h-.06l-2.2-1.27,1.87-1.08,2.28,1.28-1.87,1.08Zm-7.25-.65H293l-2.21-1.28,1.87-1.08,2.28,1.29-1.87,1.07Zm37-.57H330L324.34,180l1.86-1.08,5.74,3.28-1.86,1.07Zm-6.51-.23h-.05l-2.21-1.28,1.87-1.08,2.28,1.29L323.56,183Zm-6.51-.23h0l-2.21-1.28,1.87-1.08,2.28,1.29-1.87,1.07Zm-13.67-.08h-.05l-2.2-1.28,1.86-1.07,2.28,1.28-1.86,1.07Zm7.16-.14h0l-2.21-1.28,1.87-1.08,2.28,1.29-1.87,1.07ZM296.11,182h-.05l-2.2-1.27,1.86-1.08L298,181,296.14,182Zm24-1H320l-2.2-1.27,1.86-1.08,2.29,1.28L320.11,181Zm-6.51-.23h-.05l-2.21-1.27,1.87-1.08,2.28,1.28-1.86,1.08Zm-6.51-.23H307l-2.2-1.27,1.86-1.08,2.28,1.28-1.86,1.08Zm-7.89-.28h-.05L296.91,179l1.87-1.08,2.28,1.29-1.86,1.07Zm24-1h-.05L317.43,176l1.87-1.08,5.73,3.28-1.86,1.07Zm-6.51-.23h-.05l-2.21-1.28,1.87-1.07,2.28,1.28L316.66,179Zm-6.51-.23h-.05l-2.21-1.28,1.87-1.07,2.28,1.28-1.86,1.07ZM302,177.62h-.05l-1-.54,1.87-1.08,1,.55L302,177.62Zm11.19-.6h-.05l-2.2-1.27,1.87-1.08,2.28,1.28L313.2,177ZM305,175.85H305l-1-.54,1.87-1.08,1,.56-1.85,1.07Zm11.19-.59h-.05L314,174l1.87-1.07,2.28,1.28-1.86,1.07Zm-8.14-1.17h0l-1-.54,1.86-1.08,1,.55-1.86,1.08Zm3.06-1.76h0l-1-.55L312,170.7l1,.55-1.86,1.07Z" style="fill:#C6993A"></path></g></g><g id="freepik--Device--inject-73"><path id="freepik--shadow--inject-73" d="M195.63,207.47l-13.84-8c-2.08-1.2-2.08-3.15,0-4.35l99.35-57.36a8.33,8.33,0,0,1,7.53,0l13.85,8c2.08,1.2,2.08,3.14,0,4.34l-99.35,57.37A8.35,8.35,0,0,1,195.63,207.47Z" style="opacity:0.2"></path><g id="freepik--Monitor--inject-73"><path d="M259.93,189.55l15.26-8.83a4,4,0,0,0,2.36-3.28v-2.13l-14.36-8.15a3.35,3.35,0,0,1-1.52-2.63V145.72L235,161.12v18.81a3.38,3.38,0,0,0,1.52,2.64l12,7A12.58,12.58,0,0,0,259.93,189.55Z" style="fill:#37474f"></path><path d="M241.42,183.27v2.11l-4.89-2.82a3.36,3.36,0,0,1-1.52-2.63V161.12l5.08-2.93c.11,1.29.22,2.62.33,3.92l-3.56,2.06v14.7a3.32,3.32,0,0,0,1.51,2.63Z" style="fill:#263238"></path><path d="M236.86,178.87a3.4,3.4,0,0,0,1.51,2.64l10.16,5.92a12.62,12.62,0,0,0,11.39,0l15.27-8.83c3.15-1.81,3.15-4.76,0-6.57L265,166.1a3.35,3.35,0,0,1-1.52-2.63v-14.7l-26.65,15.4Z" style="fill:#455a64"></path><path d="M268.13,167.89h0L265,166.1a3.35,3.35,0,0,1-1.52-2.63v-14.7l-26.65,15.4v14.7a3.4,3.4,0,0,0,1.51,2.64l3,1.75Z" style="fill:#37474f"></path><path d="M194.06,199.17a4.08,4.08,0,0,0,3.68-.06l103.08-59.52a4.21,4.21,0,0,0,1.9-3.29v-83a3.56,3.56,0,0,0-5.46-3.16L194.17,109.71a4.21,4.21,0,0,0-1.89,3.29V196A4.05,4.05,0,0,0,194.06,199.17Z" style="fill:#37474f"></path><path d="M197.74,199.1l103.08-59.51a4.21,4.21,0,0,0,1.9-3.29v-83c0-1.21-.85-1.7-1.9-1.09L197.74,111.76a4.21,4.21,0,0,0-1.9,3.29v83C195.84,199.22,196.69,199.71,197.74,199.1Z" style="fill:#455a64"></path><path d="M199.4,186.89V116.23a2.52,2.52,0,0,1,1.14-2L298,58c.63-.36,1.14-.07,1.14.66v70.65a2.53,2.53,0,0,1-1.14,2l-97.48,56.27C199.91,187.91,199.4,187.61,199.4,186.89Z" style="fill:#fafafa"></path><path d="M288.8,71l-79,45.64a2.27,2.27,0,0,0-1,1.8V176c0,.66.46.93,1,.6l79-45.64a2.28,2.28,0,0,0,1-1.8V71.62C289.84,71,289.38,70.69,288.8,71Z" style="fill:#455a64"></path><path d="M217.94,121.33v36.18a.75.75,0,0,1-.35.6l-5.79,3.35c-.19.11-.35,0-.35-.2V125.07a.79.79,0,0,1,.35-.6l5.79-3.34C217.79,121,217.94,121.11,217.94,121.33Z" style="fill:#263238"></path><path d="M217.13,123.11l-1.91,1.11a.57.57,0,0,0-.26.44v2.22a.16.16,0,0,0,.26.15l1.91-1.11a.55.55,0,0,0,.26-.45v-2.21C217.39,123.09,217.28,123,217.13,123.11Z" style="fill:#37474f"></path><path d="M214.17,124.82l-1.91,1.11a.57.57,0,0,0-.26.44v2.22a.16.16,0,0,0,.26.15l1.91-1.11a.55.55,0,0,0,.26-.45V125C214.43,124.81,214.32,124.74,214.17,124.82Z" style="fill:#37474f"></path><path d="M217.13,126.46l-1.91,1.11a.57.57,0,0,0-.26.45v2.21a.16.16,0,0,0,.26.15l1.91-1.11a.55.55,0,0,0,.26-.45v-2.21C217.39,126.45,217.28,126.38,217.13,126.46Z" style="fill:#37474f"></path><path d="M214.17,128.17l-1.91,1.11a.57.57,0,0,0-.26.45v2.21c0,.17.12.23.26.15l1.91-1.11a.54.54,0,0,0,.26-.44v-2.22C214.43,128.16,214.32,128.09,214.17,128.17Z" style="fill:#37474f"></path><path d="M217.13,129.82l-1.91,1.1a.61.61,0,0,0-.26.45v2.21c0,.17.12.24.26.15l1.91-1.1a.56.56,0,0,0,.26-.45V130C217.39,129.8,217.28,129.74,217.13,129.82Z" style="fill:#37474f"></path><path d="M214.17,131.53l-1.91,1.1a.61.61,0,0,0-.26.45v2.21c0,.17.12.24.26.15l1.91-1.1a.56.56,0,0,0,.26-.45v-2.21C214.43,131.51,214.32,131.45,214.17,131.53Z" style="fill:#37474f"></path><path d="M217.13,133.17l-1.91,1.11a.57.57,0,0,0-.26.45v2.21a.16.16,0,0,0,.26.15l1.91-1.11a.55.55,0,0,0,.26-.45v-2.21C217.39,133.16,217.28,133.09,217.13,133.17Z" style="fill:#37474f"></path><path d="M214.17,134.88,212.26,136a.57.57,0,0,0-.26.45v2.21a.16.16,0,0,0,.26.15l1.91-1.11a.55.55,0,0,0,.26-.45V135C214.43,134.87,214.32,134.8,214.17,134.88Z" style="fill:#37474f"></path><path d="M217.13,136.53l-1.91,1.1a.57.57,0,0,0-.26.45v2.21c0,.17.12.23.26.15l1.91-1.1a.58.58,0,0,0,.26-.45v-2.22C217.39,136.51,217.28,136.44,217.13,136.53Z" style="fill:#37474f"></path><path d="M214.17,138.24l-1.91,1.1a.57.57,0,0,0-.26.45V142c0,.17.12.23.26.15l1.91-1.1a.58.58,0,0,0,.26-.45v-2.21C214.43,138.22,214.32,138.15,214.17,138.24Z" style="fill:#37474f"></path><path d="M217.13,139.88l-1.91,1.1a.61.61,0,0,0-.26.45v2.21c0,.17.12.24.26.15l1.91-1.1a.55.55,0,0,0,.26-.45V140C217.39,139.86,217.28,139.8,217.13,139.88Z" style="fill:#37474f"></path><path d="M214.17,141.59l-1.91,1.1a.61.61,0,0,0-.26.45v2.21c0,.17.12.24.26.15l1.91-1.1a.55.55,0,0,0,.26-.45v-2.21C214.43,141.57,214.32,141.51,214.17,141.59Z" style="fill:#37474f"></path><path d="M217.13,143.23l-1.91,1.11a.57.57,0,0,0-.26.45V147a.16.16,0,0,0,.26.15l1.91-1.11a.55.55,0,0,0,.26-.45v-2.21C217.39,143.22,217.28,143.15,217.13,143.23Z" style="fill:#37474f"></path><path d="M214.17,144.94l-1.91,1.11a.57.57,0,0,0-.26.45v2.21a.16.16,0,0,0,.26.15l1.91-1.11a.55.55,0,0,0,.26-.45v-2.21C214.43,144.93,214.32,144.86,214.17,144.94Z" style="fill:#37474f"></path><path d="M217.13,146.59l-1.91,1.1a.59.59,0,0,0-.26.45v2.21c0,.17.12.23.26.15l1.91-1.1a.58.58,0,0,0,.26-.45v-2.21C217.39,146.57,217.28,146.5,217.13,146.59Z" style="fill:#37474f"></path><path d="M214.17,148.3l-1.91,1.1a.59.59,0,0,0-.26.45v2.21c0,.17.12.23.26.15l1.91-1.1a.58.58,0,0,0,.26-.45v-2.21C214.43,148.28,214.32,148.21,214.17,148.3Z" style="fill:#37474f"></path><path d="M217,150.94l-2.86,1.64a.89.89,0,0,0-.39.68v3.29c0,.25.18.35.39.23l2.86-1.65a.85.85,0,0,0,.38-.67v-3.3C217.39,150.91,217.22,150.81,217,150.94Z" style="fill:#e0e0e0"></path><path d="M212.55,156.65l2.34-1.36s.09,0,.09.06v2.7l-2.34,1.35a.06.06,0,0,1-.09-.05v-2.7m-.39-.43a.91.91,0,0,0-.21.53V160c0,.25.17.35.39.23l2.85-1.65a.8.8,0,0,0,.17-.15.83.83,0,0,0,.22-.52v-3.3c0-.25-.17-.35-.39-.22l-2.85,1.65a.59.59,0,0,0-.18.14Z" style="fill:#C6993A"></path><path d="M278,89.48l-51.43,29.7a4.34,4.34,0,0,0-2,3.41v38.1c0,1.25.88,1.76,2,1.13L278,132.11a4.36,4.36,0,0,0,2-3.41V90.62C280,89.36,279.09,88.85,278,89.48Z" style="fill:#fafafa"></path><path d="M227.38,126.71a.46.46,0,0,1-.4-.23.46.46,0,0,1,.17-.62l18.47-10.67a.46.46,0,0,1,.46.79L227.6,126.65A.46.46,0,0,1,227.38,126.71Z" style="fill:#e0e0e0"></path><path d="M227.38,131a.45.45,0,0,1-.23-.85l18.47-10.66a.45.45,0,0,1,.62.17.46.46,0,0,1-.16.62L227.6,130.91A.46.46,0,0,1,227.38,131Z" style="fill:#e0e0e0"></path><path d="M227.38,135.24a.45.45,0,0,1-.23-.85l18.47-10.67a.46.46,0,0,1,.46.79L227.6,135.18A.46.46,0,0,1,227.38,135.24Z" style="fill:#e0e0e0"></path><path d="M227.38,139.51a.48.48,0,0,1-.4-.23.46.46,0,0,1,.17-.62L245.62,128a.46.46,0,0,1,.46.79L227.6,139.44A.38.38,0,0,1,227.38,139.51Z" style="fill:#e0e0e0"></path><polygon points="249.54 113.45 275.41 98.52 275.41 115.59 249.54 130.52 249.54 113.45" style="fill:#C6993A"></polygon><polygon points="249.54 113.45 275.41 98.52 275.41 115.59 249.54 130.52 249.54 113.45" style="fill:#fff;opacity:0.5"></polygon><polygon points="251.4 127.33 273.6 114.54 268.71 111.12 263.84 116.9 258.5 111.97 251.4 127.33" style="fill:#fff"></polygon><path d="M265.1,108c.59-.34,1.07-.06,1.07.62a2.36,2.36,0,0,1-1.07,1.85c-.59.34-1.07.06-1.07-.62A2.36,2.36,0,0,1,265.1,108Z" style="fill:#fff"></path><polygon points="227.38 147.58 275.41 119.85 275.41 124.12 227.38 151.85 227.38 147.58" style="fill:#C6993A"></polygon><path d="M227.38,143.77a.45.45,0,0,1-.23-.85l18.47-10.66a.45.45,0,1,1,.46.78L227.6,143.71A.46.46,0,0,1,227.38,143.77Z" style="fill:#e0e0e0"></path><path d="M227.37,156.57a.46.46,0,0,1-.39-.23.45.45,0,0,1,.17-.62L275.24,128a.45.45,0,0,1,.62.16.47.47,0,0,1-.16.63l-48.1,27.69A.46.46,0,0,1,227.37,156.57Z" style="fill:#e0e0e0"></path><path d="M208.72,118.45a2.29,2.29,0,0,1,1-1.79L288.8,71c.58-.33,1-.06,1,.6V76l-81.12,46.84Z" style="fill:#37474f"></path><path d="M251.4,161.09a3.93,3.93,0,0,0-1.78,3.08c0,1.14.8,1.6,1.78,1a3.9,3.9,0,0,0,1.78-3.09C253.18,161,252.39,160.52,251.4,161.09Z" style="fill:#C6993A"></path><path d="M192.83,111.12l3.57,2a4,4,0,0,0-.57,1.88v83.19c0,1.11.71,1.61,1.63,1.24a3.55,3.55,0,0,1-5.19-3.3V113A4,4,0,0,1,192.83,111.12Z" style="fill:#263238"></path></g></g><g id="freepik--Mouse--inject-73"><path d="M338.76,166.33l-6.92,4a7.61,7.61,0,0,1-7.63-.4l-11.4-8.33c-2-1.48-1.92-3.7.26-5l3.47-2a9.4,9.4,0,0,1,8-.25L338.63,162C340.88,163.14,340.94,165.07,338.76,166.33Z" style="opacity:0.2"></path><path d="M312.62,158l7.89,6.17,5.82,4.56a5.12,5.12,0,0,0,1.86.44,5,5,0,0,0,2.76-.58l6.19-3.57a0,0,0,0,0,0,0l0,0a4.38,4.38,0,0,0,1.25-6.26c-.06-.09-.13-.17-.19-.25a8.19,8.19,0,0,0-5-3.16l-3.14-.63c-5.07-1-9.24-1.53-9.72-1.2L312.67,158Z" style="fill:#37474f"></path><path d="M317,161.42l-.44-.35,7-4-6.09-1.89.61-.35,6.09,1.88,4.15-2.39.79.14Z" style="fill:#C6993A"></path><path d="M325.65,168.32l0,0a0,0,0,0,0,0,0l-5.54-4-7.48-5.41V158a.07.07,0,0,1,0-.06l.05,0c.55-.19,3.8.79,7.71,2.34l2.6,1a8,8,0,0,1,2.21,1.32,8.24,8.24,0,0,1,3,6.37v.13a5.12,5.12,0,0,1-1.86-.44Z" style="fill:#263238"></path></g><g id="freepik--Palettes--inject-73"><path id="freepik--shadow--inject-73" d="M258.17,222.94a.91.91,0,0,0-.67-.43l-47.26-7.31-.18,0a.91.91,0,0,0-.86.48l-2,4.4-2.53,2.53a.79.79,0,0,0-.15.25l-1.4.81a.7.7,0,0,0,0,1.25l34.6,20a1.09,1.09,0,0,0,.54.13,1.11,1.11,0,0,0,.54-.13l7.17-4.14a.7.7,0,0,0,0-1.25l-8.42-4.86,9.85,3.28a1,1,0,0,0,.36.06,1,1,0,0,0,.72-.27l5.07-5.07a.69.69,0,0,0,.19-.64.8.8,0,0,0-.55-.55L242,227.71l12.56,1.94.18,0a.91.91,0,0,0,.86-.48l2.62-5.65A.67.67,0,0,0,258.17,222.94Z" style="opacity:0.15"></path><g id="freepik--Palette--inject-73"><path d="M245.76,238a.19.19,0,0,0-.11-.16l-34.6-20a.66.66,0,0,0-.55,0L203.33,222a.19.19,0,0,0-.11.16v1.07a.19.19,0,0,0,.11.16l34.6,20a.66.66,0,0,0,.55,0l7.17-4.14a.19.19,0,0,0,.11-.16Z" style="fill:#f0f0f0"></path><path d="M238.2,242.38v1.08a.52.52,0,0,1-.27-.07l-34.6-20c-.07,0-.11-.1-.11-.15v-1.08c0,.07,0,.11.11.15l34.6,20A.6.6,0,0,0,238.2,242.38Z" style="fill:#e0e0e0"></path><path d="M211.05,217.88l34.6,20a.17.17,0,0,1,0,.32l-7.17,4.13a.59.59,0,0,1-.55,0l-34.6-20a.17.17,0,0,1,0-.32l7.17-4.14A.66.66,0,0,1,211.05,217.88Z" style="fill:#fafafa"></path><polygon points="210.77 219.7 206.49 222.18 210.78 224.65 215.06 222.18 210.77 219.7" style="fill:#f28f8f"></polygon><polygon points="210.77 219.7 206.49 222.18 210.78 224.65 215.06 222.18 210.77 219.7" style="fill:#f0f0f0;opacity:0.9"></polygon><polygon points="221.75 226.04 217.46 228.51 221.75 230.99 226.03 228.51 221.75 226.04" style="fill:#f28f8f"></polygon><polygon points="221.75 226.04 217.46 228.51 221.75 230.99 226.03 228.51 221.75 226.04" style="fill:#f0f0f0;opacity:0.6000000000000001"></polygon><polygon points="227.23 229.21 222.95 231.68 227.24 234.16 231.52 231.68 227.23 229.21" style="fill:#f28f8f"></polygon><polygon points="227.23 229.21 222.95 231.68 227.24 234.16 231.52 231.68 227.23 229.21" style="fill:#f0f0f0;opacity:0.5"></polygon><polygon points="232.72 232.38 228.44 234.85 232.72 237.32 237.01 234.85 232.72 232.38" style="fill:#f28f8f"></polygon><polygon points="232.72 232.38 228.44 234.85 232.72 237.32 237.01 234.85 232.72 232.38" style="fill:#f0f0f0;opacity:0.4"></polygon><polygon points="238.21 235.54 233.92 238.02 238.21 240.49 242.49 238.02 238.21 235.54" style="fill:#f28f8f"></polygon><polygon points="216.26 222.87 211.98 225.35 216.26 227.82 220.55 225.35 216.26 222.87" style="fill:#f28f8f"></polygon><polygon points="216.26 222.87 211.98 225.35 216.26 227.82 220.55 225.35 216.26 222.87" style="fill:#f0f0f0;opacity:0.8"></polygon><path d="M211.21,219.12a1,1,0,0,1-.87,0,.26.26,0,0,1,0-.5,1,1,0,0,1,.87,0A.26.26,0,0,1,211.21,219.12Z" style="fill:#263238"></path></g><g id="freepik--palette--inject-73"><path d="M253.17,230.05c0-.08-.07-.16-.2-.2L210.6,215.73a.56.56,0,0,0-.53.08L205,220.88a.13.13,0,0,0-.05.11v1.07c0,.08.06.15.19.2l42.38,14.12a.57.57,0,0,0,.53-.08l5.06-5.07a.14.14,0,0,0,.06-.11C253.16,231,253.17,230.08,253.17,230.05Z" style="fill:#f0f0f0"></path><path d="M247.82,235.32v1.08a.51.51,0,0,1-.3,0l-42.38-14.12c-.12,0-.2-.12-.19-.21V221c0,.08.08.15.19.19l42.38,14.13A.51.51,0,0,0,247.82,235.32Z" style="fill:#e0e0e0"></path><path d="M210.6,215.73,253,229.85c.19.06.25.2.14.31l-5.06,5.07a.6.6,0,0,1-.53.08l-42.38-14.13c-.18-.06-.25-.2-.14-.3l5.07-5.07A.56.56,0,0,1,210.6,215.73Z" style="fill:#fafafa"></path><polygon points="211.15 217.53 208.12 220.56 213.37 222.31 216.4 219.28 211.15 217.53" style="fill:#C6993A"></polygon><polygon points="224.59 222.01 221.56 225.04 226.81 226.79 229.84 223.76 224.59 222.01" style="fill:#C6993A"></polygon><polygon points="224.59 222.01 221.56 225.04 226.81 226.79 229.84 223.76 224.59 222.01" style="opacity:0.25"></polygon><polygon points="231.31 224.25 228.28 227.28 233.53 229.03 236.56 226 231.31 224.25" style="fill:#C6993A"></polygon><polygon points="231.31 224.25 228.28 227.28 233.53 229.03 236.56 226 231.31 224.25" style="opacity:0.35000000000000003"></polygon><polygon points="238.03 226.49 235 229.52 240.25 231.27 243.28 228.24 238.03 226.49" style="fill:#C6993A"></polygon><polygon points="238.03 226.49 235 229.52 240.25 231.27 243.28 228.24 238.03 226.49" style="opacity:0.35000000000000003"></polygon><polygon points="244.75 228.73 241.72 231.76 246.97 233.51 250 230.48 244.75 228.73" style="fill:#C6993A"></polygon><polygon points="244.75 228.73 241.72 231.76 246.97 233.51 250 230.48 244.75 228.73" style="opacity:0.5"></polygon><polygon points="217.87 219.77 214.84 222.8 220.09 224.55 223.12 221.52 217.87 219.77" style="fill:#C6993A"></polygon><polygon points="217.87 219.77 214.84 222.8 220.09 224.55 223.12 221.52 217.87 219.77" style="opacity:0.15"></polygon><path d="M211.31,216.9a.89.89,0,0,1-.84.13c-.3-.1-.4-.32-.23-.49a.92.92,0,0,1,.84-.13C211.38,216.51,211.48,216.73,211.31,216.9Z" style="fill:#263238"></path></g><g id="freepik--palette--inject-73"><path d="M257.71,221.16c0-.1-.12-.19-.29-.22l-47.26-7.31a.48.48,0,0,0-.48.16l-2.62,5.65a.13.13,0,0,0,0,.06v1.07c0,.1.11.19.28.22l47.27,7.31c.2,0,.42,0,.47-.16l2.63-5.65a.13.13,0,0,0,0-.06Z" style="fill:#f0f0f0"></path><path d="M254.83,227v1.07a.64.64,0,0,1-.24,0l-47.26-7.31c-.17,0-.29-.12-.29-.22V219.5c0,.1.12.18.29.21L254.59,227Z" style="fill:#e0e0e0"></path><path d="M210.16,213.63l47.26,7.31c.21,0,.33.16.28.28l-2.63,5.65c0,.12-.27.19-.47.16l-47.27-7.31c-.2,0-.33-.16-.27-.28l2.62-5.65A.48.48,0,0,1,210.16,213.63Z" style="fill:#fafafa"></path><polygon points="211.5 215.29 209.93 218.67 215.78 219.57 217.35 216.19 211.5 215.29" style="fill:#C6993A"></polygon><polygon points="211.5 215.29 209.93 218.67 215.78 219.57 217.35 216.19 211.5 215.29" style="fill:#fff;opacity:0.9"></polygon><polygon points="226.49 217.61 224.92 220.99 230.77 221.89 232.34 218.51 226.49 217.61" style="fill:#C6993A"></polygon><polygon points="226.49 217.61 224.92 220.99 230.77 221.89 232.34 218.51 226.49 217.61" style="fill:#fff;opacity:0.75"></polygon><polygon points="233.98 218.77 232.41 222.15 238.27 223.05 239.84 219.67 233.98 218.77" style="fill:#C6993A"></polygon><polygon points="233.98 218.77 232.41 222.15 238.27 223.05 239.84 219.67 233.98 218.77" style="fill:#fff;opacity:0.7000000000000001"></polygon><polygon points="241.48 219.93 239.91 223.31 245.76 224.21 247.33 220.83 241.48 219.93" style="fill:#C6993A"></polygon><polygon points="241.48 219.93 239.91 223.31 245.76 224.21 247.33 220.83 241.48 219.93" style="fill:#fff;opacity:0.6000000000000001"></polygon><polygon points="248.97 221.09 247.4 224.47 253.26 225.37 254.83 221.99 248.97 221.09" style="fill:#C6993A"></polygon><polygon points="218.99 216.45 217.42 219.83 223.28 220.73 224.85 217.35 218.99 216.45" style="fill:#C6993A"></polygon><polygon points="218.99 216.45 217.42 219.83 223.28 220.73 224.85 217.35 218.99 216.45" style="fill:#fff;opacity:0.8"></polygon><path d="M211.37,214.66a.74.74,0,0,1-.75.25c-.33,0-.53-.25-.44-.44a.74.74,0,0,1,.75-.25C211.26,214.27,211.46,214.47,211.37,214.66Z" style="fill:#263238"></path></g></g></g></g><g id="freepik--Furniture--inject-73"><g id="freepik--Cabinet--inject-73"><polygon points="103.46 405.85 106.34 420.15 109.14 421.77 111.92 420.17 114.83 405.85 109.14 402.57 103.46 405.85" style="fill:#455a64"></polygon><polygon points="109.14 421.77 109.14 409.13 103.46 405.85 106.34 420.15 109.14 421.77" style="fill:#37474f"></polygon><polygon points="103.46 405.85 105.32 415.09 109.14 417.3 112.95 415.1 114.83 405.85 109.14 402.57 103.46 405.85" style="opacity:0.2"></polygon><polygon points="193.85 353.67 196.73 367.97 199.53 369.59 202.31 367.98 205.22 353.67 199.53 350.38 193.85 353.67" style="fill:#455a64"></polygon><polygon points="199.53 369.59 199.53 356.95 193.85 353.67 196.73 367.97 199.53 369.59" style="fill:#37474f"></polygon><polygon points="193.85 353.67 195.71 362.9 199.53 365.11 203.34 362.91 205.22 353.67 199.53 350.38 193.85 353.67" style="opacity:0.2"></polygon><polygon points="41.35 369.99 44.23 384.3 47.03 385.91 49.81 384.31 52.72 369.99 47.03 366.71 41.35 369.99" style="fill:#455a64"></polygon><polygon points="47.03 385.91 47.03 373.27 41.35 369.99 44.23 384.3 47.03 385.91" style="fill:#37474f"></polygon><polygon points="41.35 369.99 43.21 379.23 47.03 381.44 50.84 379.24 52.72 369.99 47.03 366.71 41.35 369.99" style="opacity:0.2"></polygon><g id="freepik--cabinet--inject-73"><polygon points="109.14 412.6 40.82 373.15 40.82 270.95 109.14 310.4 109.14 412.6" style="fill:#263238"></polygon><polygon points="109.14 310.4 208.52 253.02 208.52 355.22 109.14 412.6 109.14 310.4" style="fill:#37474f"></polygon><polygon points="208.52 253.02 109.14 310.4 40.82 270.95 140.2 213.57 208.52 253.02" style="fill:#455a64"></polygon><polygon points="118.28 360.27 199.39 313.44 199.38 346.04 201.07 347.01 119.96 393.84 118.28 392.87 118.28 360.27" style="fill:#263238"></polygon><polygon points="119.96 361.24 201.07 314.41 201.07 347.01 119.96 393.84 119.96 361.24" style="fill:#455a64"></polygon><path d="M157.41,348.2,169.83,341c1.61-.94,2.92-.51,2.92,1a5.86,5.86,0,0,1-2.92,4.32l-12.43,7.17c-1.61.93-2.92.51-2.92-1A5.85,5.85,0,0,1,157.41,348.2Z" style="fill:#263238"></path><polygon points="118.28 317.14 199.39 270.31 199.38 302.91 201.07 303.88 119.96 350.7 118.28 349.73 118.28 317.14" style="fill:#263238"></polygon><polygon points="119.96 318.11 201.07 271.28 201.07 303.88 119.96 350.7 119.96 318.11" style="fill:#455a64"></polygon><path d="M157.41,305.06l12.42-7.17c1.61-.93,2.92-.51,2.92.95a5.84,5.84,0,0,1-2.92,4.32l-12.43,7.18c-1.61.93-2.92.5-2.92-.95A5.86,5.86,0,0,1,157.41,305.06Z" style="fill:#263238"></path></g></g></g><g id="freepik--Printer--inject-73"><g id="freepik--printer--inject-73"><polygon points="54.86 268.25 108.93 299.47 193.04 250.9 138.97 219.69 54.86 268.25" style="fill:#263238"></polygon><path d="M108.93,299.47,54.86,268.25V271a3.56,3.56,0,0,0,1.6,2.77l50.87,29.37a3.21,3.21,0,0,0,3.2,0h0l-1.6-.92Z" style="fill:#263238"></path><path d="M193,250.9v2.76a3.54,3.54,0,0,1-1.6,2.78l-80.91,46.71c-.88.51-1.6.1-1.6-.92v-2.76Z" style="fill:#37474f"></path><path d="M191.41,249.51a3.7,3.7,0,0,0,1.68-2.9l-.05-9-53.42-30.84L125.48,215l0,10.88L179,256.7Z" style="fill:#C6993A"></path><path d="M191.41,249.51a3.7,3.7,0,0,0,1.68-2.9l-.05-9-53.42-30.84L125.48,215l0,10.88L179,256.7Z" style="fill:#fff;opacity:0.7000000000000001"></path><polygon points="125.48 214.98 125.53 225.86 178.95 256.7 178.91 245.82 125.48 214.98" style="fill:#C6993A"></polygon><polygon points="125.48 214.98 125.53 225.86 178.95 256.7 178.91 245.82 125.48 214.98" style="opacity:0.30000000000000004"></polygon><polygon points="125.48 214.98 139.62 206.82 193.04 237.66 178.91 245.82 125.48 214.98" style="fill:#C6993A"></polygon><polygon points="125.48 214.98 139.62 206.82 193.04 237.66 178.91 245.82 125.48 214.98" style="opacity:0.15"></polygon><polygon points="61.1 268.5 95.67 288.46 95.67 281.2 61.1 261.24 61.1 268.5" style="fill:#C6993A"></polygon><polygon points="61.1 268.5 95.67 288.46 95.67 281.2 61.1 261.24 61.1 268.5" style="opacity:0.15"></polygon><path d="M109.91,296.56l65.79-38a3.68,3.68,0,0,0,1.68-2.9v-9L124,215.88,54.81,255.8v8.95a3.68,3.68,0,0,0,1.68,2.9l4.61,2.66v-5.44l34.57,20v5.44l10.89,6.29A3.67,3.67,0,0,0,109.91,296.56Z" style="fill:#C6993A"></path><path d="M109.91,296.56l65.79-38a3.68,3.68,0,0,0,1.68-2.9v-9L124,215.88,54.81,255.8v8.95a3.68,3.68,0,0,0,1.68,2.9l4.61,2.66v-5.44l34.57,20v5.44l10.89,6.29A3.67,3.67,0,0,0,109.91,296.56Z" style="fill:#fff;opacity:0.5"></path><polygon points="108.24 286.64 177.38 246.73 123.95 215.88 54.81 255.8 108.24 286.64" style="fill:#C6993A"></polygon><polygon points="108.24 286.64 177.38 246.73 123.95 215.88 54.81 255.8 108.24 286.64" style="opacity:0.15"></polygon><path d="M177.38,246.73v10.88l-67.47,38.95c-.92.54-1.67.1-1.67-1v-9Z" style="fill:#C6993A"></path><path d="M177.38,246.73v10.88l-67.47,38.95c-.92.54-1.67.1-1.67-1v-9Z" style="fill:#fff;opacity:0.7000000000000001"></path><polygon points="61.1 270.31 62.67 269.41 62.67 265.78 61.1 264.87 61.1 270.31" style="fill:#C6993A"></polygon><polygon points="61.1 270.31 62.67 269.41 62.67 265.78 61.1 264.87 61.1 270.31" style="opacity:0.35000000000000003"></polygon><path d="M116.09,285.74c.87-.5,1.58-.1,1.58.9a3.49,3.49,0,0,1-1.58,2.73c-.86.5-1.57.09-1.57-.91A3.49,3.49,0,0,1,116.09,285.74Z" style="fill:#455a64"></path><path d="M171.09,254v1.82c0,1-1.5,2.68-3.35,3.75L127.3,282.9C125.45,284,124,284,124,283V281.2Z" style="fill:#455a64"></path><path d="M108.24,278.7v5.44L54.81,253.3V229.71l37.71,21.77A31.43,31.43,0,0,1,108.24,278.7Z" style="fill:#37474f"></path><path d="M177.37,202.49l-37.71-21.77-9.43,5.45L54.81,229.71l37.71,21.77a31.45,31.45,0,0,1,15.72,27.22v5.44l75.42-43.54h0l9.43-5.43v-5.44A31.43,31.43,0,0,0,177.37,202.49Z" style="fill:#455a64"></path><path d="M180.51,237a31.41,31.41,0,0,0-15.71-27.22L127.09,188,70.52,220.64l37.71,21.77A31.42,31.42,0,0,1,124,269.63Z" style="fill:#C6993A"></path><path d="M180.51,237a31.41,31.41,0,0,0-15.71-27.22L127.09,188,70.52,220.64l37.71,21.77A31.42,31.42,0,0,1,124,269.63Z" style="fill:#fff;opacity:0.5"></path><path d="M120.8,217c-3.47,2-3.47,5.25,0,7.26a13.94,13.94,0,0,0,12.58,0c3.47-2,3.47-5.26,0-7.26A13.88,13.88,0,0,0,120.8,217Z" style="fill:#fafafa"></path><polygon points="118.09 266.19 188.3 225.66 188.3 232.29 118.09 272.82 118.09 266.19" style="fill:#C6993A"></polygon><polygon points="120.9 266.27 120.9 269.51 185.49 232.22 185.49 228.97 120.9 266.27" style="fill:#263238"></polygon><polygon points="118.09 266.19 116.67 265.37 186.88 224.83 188.3 225.66 118.09 266.19" style="fill:#C6993A"></polygon><polygon points="118.09 266.19 116.67 265.37 186.88 224.83 188.3 225.66 118.09 266.19" style="opacity:0.15"></polygon><polygon points="116.67 265.37 118.09 266.19 118.09 272.82 116.67 272 116.67 265.37" style="fill:#C6993A"></polygon><polygon points="116.67 265.37 118.09 266.19 118.09 272.82 116.67 272 116.67 265.37" style="opacity:0.30000000000000004"></polygon><polygon points="69.9 229.11 140.02 188.63 143.45 190.62 73.35 231.1 69.9 229.11" style="fill:#263238"></polygon><polygon points="71.53 230.07 61.46 185.52 131.57 145.04 141.64 189.59 71.53 230.07" style="fill:#37474f"></polygon><polygon points="61.46 185.52 59.83 184.57 69.9 229.11 71.53 230.07 61.46 185.52" style="fill:#263238"></polygon><polygon points="59.83 184.57 61.46 185.52 131.57 145.04 129.95 144.09 59.83 184.57" style="fill:#455a64"></polygon><polygon points="73.56 228.89 61.39 175.02 125.6 137.95 137.78 191.82 73.56 228.89" style="fill:#e0e0e0"></polygon><polygon points="75.35 229.94 63.17 176.07 127.39 139 139.56 192.87 75.35 229.94" style="fill:#fafafa"></polygon><polygon points="63.17 176.07 61.39 175.02 73.98 230.74 75.35 229.94 63.17 176.07" style="fill:#e0e0e0"></polygon><polygon points="61.39 175.02 63.17 176.07 127.39 139 125.6 137.95 61.39 175.02" style="fill:#ebebeb"></polygon><path d="M109.36,248.61v-.54a.67.67,0,0,0-.42-.59l-1.14-.66a2.27,2.27,0,0,0-2,0l-4.31,2.49a.72.72,0,0,0-.42.59h0v.56h0a.71.71,0,0,0,.42.57l1.14.66a2.21,2.21,0,0,0,2,0l4.31-2.49a.71.71,0,0,0,.42-.58h0Z" style="fill:#263238"></path><path d="M102.6,251.14l-1.14-.66a.62.62,0,0,1,0-1.17l4.31-2.49a2.27,2.27,0,0,1,2,0l1.14.66a.62.62,0,0,1,0,1.17l-4.31,2.49A2.21,2.21,0,0,1,102.6,251.14Z" style="fill:#37474f"></path><path d="M103.68,250.68a1.86,1.86,0,0,1-.87-.2.79.79,0,0,1-.37-.43.54.54,0,0,1,.06-.39.09.09,0,0,1,.13,0,.08.08,0,0,1,0,.12.37.37,0,0,0,0,.25.54.54,0,0,0,.29.31,1.67,1.67,0,0,0,1.54,0,.48.48,0,0,0,.29-.39.51.51,0,0,0-.29-.39,1.77,1.77,0,0,0-1.13-.15.09.09,0,0,1-.11-.07.09.09,0,0,1,.07-.11,1.9,1.9,0,0,1,1.26.17.66.66,0,0,1,.39.55.67.67,0,0,1-.39.56A1.85,1.85,0,0,1,103.68,250.68Z" style="fill:#fafafa"></path><path d="M103.72,250h0l-1.06-.62a.09.09,0,0,1,0-.12.1.1,0,0,1,.13,0l1.06.62a.09.09,0,0,1,0,.12A.1.1,0,0,1,103.72,250Z" style="fill:#fafafa"></path><path d="M96.93,249.93l9.48-5.5c.29-.16.28-.43,0-.6l-5.5-3.18a1.18,1.18,0,0,0-1,0l-9.48,5.49c-.29.17-.29.44,0,.6l5.5,3.18A1.14,1.14,0,0,0,96.93,249.93Z" style="fill:#263238"></path><path d="M100.91,241.44a1.14,1.14,0,0,0-1,0l-9.32,5.4,5.34,3.09a1.14,1.14,0,0,0,1.05,0l9.32-5.4Z" style="fill:#C6993A"></path><g style="opacity:0.4"><path d="M93.66,247.1a1.7,1.7,0,0,1,1.66-.07c.49.29.47.68-.06,1l-.46.27.61.35-.4.23-2.22-1.28Zm1,1.08L95,248c.36-.21.32-.45-.1-.7a1.12,1.12,0,0,0-1.16,0l-.37.21Z"></path><path d="M94.89,246.38l.92-.53a1.52,1.52,0,0,1,1.44-.1.4.4,0,0,1,.09.72,1.65,1.65,0,0,1,.43,0l1.09.08-.25.33-1-.12a1.21,1.21,0,0,0-.83.09l-.13.07.91.52-.41.24Zm.59-.13,1,.55.47-.27c.25-.15.22-.36-.07-.53a.85.85,0,0,0-.91,0Z"></path><path d="M97.43,244.91l2.22,1.28-.41.24L97,245.15Z"></path><path d="M98.22,244.46l2.7.26h.1l-.67-.38c-.3-.17-.85-.42-1-.52l.29-.17,2.22,1.28-.28.16-2.75-.26-.15,0h0l.73.43,1,.55-.27.15c-.16-.09-.62-.4-.91-.57l-1.27-.73Z"></path><path d="M101.81,242.39l.22.13c-.14.08-.56.27-.77.39l2,1.18-.41.23-2-1.17c-.21.12-.53.36-.68.44l-.22-.13Z"></path></g><path d="M139.16,334.85V295.71a33.62,33.62,0,0,0-2.64-13.08,34.62,34.62,0,0,0-1.87-3.76,33.67,33.67,0,0,0-12.33-12.33v1.61a32.38,32.38,0,0,1,15.46,27.56v39.14a35.19,35.19,0,0,0,17.53,30.37l.7.4V364A33.68,33.68,0,0,1,139.16,334.85Z" style="fill:#e0e0e0"></path><path d="M122.31,266.54a33.66,33.66,0,0,1,16.84,29.17v39.14A33.68,33.68,0,0,0,156,364l61.78-35.65a33.69,33.69,0,0,1-16.85-29.18V260.07a33.67,33.67,0,0,0-16.84-29.18Z" style="fill:#fafafa"></path><path d="M134.62,267.82a.35.35,0,0,1-.17-.65l50.25-29a.35.35,0,1,1,.35.6l-50.25,29A.41.41,0,0,1,134.62,267.82Z" style="opacity:0.4"></path><path d="M136.71,270.06a.34.34,0,0,1-.18-.64l50.33-29.05a.34.34,0,1,1,.35.59L136.88,270A.38.38,0,0,1,136.71,270.06Z" style="opacity:0.4"></path><path d="M138.64,272.86a.35.35,0,0,1-.17-.65l50.33-29a.34.34,0,0,1,.47.13.35.35,0,0,1-.13.47l-50.33,29.05A.34.34,0,0,1,138.64,272.86Z" style="opacity:0.4"></path><path d="M140.32,275.79a.34.34,0,0,1-.17-.64l50.33-29a.34.34,0,0,1,.47.13.35.35,0,0,1-.13.47l-50.33,29.05A.33.33,0,0,1,140.32,275.79Z" style="opacity:0.4"></path><path d="M141.74,278.88a.36.36,0,0,1-.3-.18.35.35,0,0,1,.13-.47l50.33-29.05a.34.34,0,1,1,.34.6l-50.32,29A.41.41,0,0,1,141.74,278.88Z" style="opacity:0.4"></path><path d="M142.91,282.1a.34.34,0,0,1-.17-.64l50.33-29a.34.34,0,1,1,.34.59l-50.33,29.05A.26.26,0,0,1,142.91,282.1Z" style="opacity:0.4"></path><path d="M143.82,285.47a.35.35,0,0,1-.3-.17.34.34,0,0,1,.13-.47L194,255.77a.36.36,0,0,1,.47.13.34.34,0,0,1-.13.47L144,285.42A.26.26,0,0,1,143.82,285.47Z" style="opacity:0.4"></path><path d="M144.47,289a.36.36,0,0,1-.3-.17.35.35,0,0,1,.13-.47l50.33-29a.34.34,0,0,1,.47.12.35.35,0,0,1-.12.48l-50.33,29.05A.39.39,0,0,1,144.47,289Z" style="opacity:0.4"></path><path d="M144.87,292.64a.34.34,0,0,1-.3-.17.33.33,0,0,1,.13-.47L195,263a.34.34,0,1,1,.34.59L145,292.6A.33.33,0,0,1,144.87,292.64Z" style="opacity:0.4"></path><path d="M145,296.45a.35.35,0,0,1-.3-.18.34.34,0,0,1,.12-.47l50.33-29.05a.33.33,0,0,1,.47.13.34.34,0,0,1-.12.47l-50.33,29A.41.41,0,0,1,145,296.45Z" style="opacity:0.4"></path><path d="M144.88,300.39a.35.35,0,0,1-.3-.17.34.34,0,0,1,.13-.47L195,270.7a.34.34,0,0,1,.47.12.35.35,0,0,1-.13.48l-50.33,29.05A.33.33,0,0,1,144.88,300.39Z" style="opacity:0.4"></path><path d="M146.26,339.57a.48.48,0,0,1-.42-.25.47.47,0,0,1,.18-.66l20.59-11.89a.5.5,0,0,1,.67.18.48.48,0,0,1-.18.67L146.51,339.5A.45.45,0,0,1,146.26,339.57Z" style="opacity:0.4"></path><path d="M147.21,342.52a.49.49,0,0,1-.24-.92l20.59-11.88a.48.48,0,0,1,.67.18.5.5,0,0,1-.18.67l-20.59,11.88A.47.47,0,0,1,147.21,342.52Z" style="opacity:0.4"></path><path d="M175.6,323.62a.5.5,0,0,1-.43-.25.5.5,0,0,1,.18-.67L196,310.82a.49.49,0,1,1,.49.84l-20.6,11.89A.51.51,0,0,1,175.6,323.62Z" style="opacity:0.4"></path><path d="M176.55,326.56a.49.49,0,0,1-.43-.24.5.5,0,0,1,.18-.67l20.6-11.88a.48.48,0,0,1,.66.17.49.49,0,0,1-.17.67l-20.6,11.89A.53.53,0,0,1,176.55,326.56Z" style="opacity:0.4"></path><path d="M152.86,345.86l46.95-27.09a3.61,3.61,0,0,1,4.71.84,2.76,2.76,0,0,1-1.06,4.13l-47,27.1a3.88,3.88,0,0,1-4.93-.67A3,3,0,0,1,152.86,345.86Z" style="fill:#C6993A"></path><path d="M145.13,306.45a.43.43,0,0,1-.39-.23.44.44,0,0,1,.16-.62l20.83-12a.46.46,0,0,1,.62.17.46.46,0,0,1-.17.62l-20.82,12A.46.46,0,0,1,145.13,306.45Z" style="fill:#e0e0e0"></path><path d="M145.13,310.71a.44.44,0,0,1-.39-.22.46.46,0,0,1,.16-.63l20.83-12a.45.45,0,1,1,.45.79l-20.82,12A.46.46,0,0,1,145.13,310.71Z" style="fill:#e0e0e0"></path><path d="M145.13,315a.43.43,0,0,1-.39-.23.45.45,0,0,1,.16-.62l20.83-12a.45.45,0,1,1,.45.78l-20.82,12A.46.46,0,0,1,145.13,315Z" style="fill:#e0e0e0"></path><path d="M145.13,319.25a.45.45,0,0,1-.39-.23.44.44,0,0,1,.16-.62l20.83-12a.45.45,0,1,1,.45.79l-20.82,12A.39.39,0,0,1,145.13,319.25Z" style="fill:#e0e0e0"></path><polygon points="169.65 291.83 195.51 276.9 195.51 293.97 169.65 308.9 169.65 291.83" style="fill:#C6993A"></polygon><polygon points="169.65 291.83 195.51 276.9 195.51 293.97 169.65 308.9 169.65 291.83" style="fill:#fff;opacity:0.5"></polygon><polygon points="171.51 305.71 193.71 292.92 188.82 289.5 183.95 295.28 178.6 290.36 171.51 305.71" style="fill:#fff"></polygon><path d="M185.21,286.34c.59-.35,1.07-.07,1.07.61a2.36,2.36,0,0,1-1.07,1.85c-.59.34-1.07.07-1.07-.61A2.35,2.35,0,0,1,185.21,286.34Z" style="fill:#fff"></path><polygon points="145.13 327.32 195.51 298.24 195.51 302.5 145.13 331.59 145.13 327.32" style="fill:#C6993A"></polygon><path d="M145.13,323.51a.44.44,0,0,1-.39-.22.47.47,0,0,1,.16-.63l20.83-12a.46.46,0,0,1,.62.16.47.47,0,0,1-.17.63l-20.82,12A.46.46,0,0,1,145.13,323.51Z" style="fill:#e0e0e0"></path><path d="M145.13,336.31a.45.45,0,0,1-.23-.85l50.45-29a.45.45,0,1,1,.45.79l-50.44,29.05A.49.49,0,0,1,145.13,336.31Z" style="fill:#e0e0e0"></path><polygon points="156.01 365.62 217.79 329.97 217.79 328.37 156.01 364.02 156.01 365.62" style="fill:#f0f0f0"></polygon></g></g><g id="freepik--Sheets--inject-73"><g id="freepik--sheets--inject-73"><g id="freepik--sheets--inject-73"><g id="freepik--Character--inject-73"><polygon points="333.98 400.95 261.88 442.66 261.88 398.44 333.98 356.74 333.98 400.95" style="fill:#fafafa"></polygon><polygon points="265.45 396.37 265.45 407.37 333.98 367.74 333.98 356.74 265.45 396.37" style="opacity:0.1"></polygon><polygon points="211.91 413.8 261.88 442.66 261.88 398.44 211.9 369.58 211.91 413.8" style="fill:#f0f0f0"></polygon><polygon points="333.98 356.74 284 327.88 211.9 369.58 261.88 398.44 333.98 356.74" style="fill:#fff"></polygon><polygon points="221.01 370.71 265.45 396.37 333.98 356.74 289.54 331.08 221.01 370.71" style="opacity:0.1"></polygon></g><polygon points="296.41 393.3 261.88 413.23 241.17 401.27 261.88 414.46 296.41 393.3" style="opacity:0.1"></polygon><polygon points="317.12 392.48 261.88 424.37 220.45 400.45 261.88 425.58 317.12 392.48" style="opacity:0.1"></polygon><path d="M327,373.14s1.14,6.45.57,9.72c0,0-9-.23-24.3,4Z" style="opacity:0.1"></path><polygon points="327.04 373.14 303.31 386.84 329.57 379.26 327.04 373.14" style="fill:#fff"></polygon><path d="M296.41,411.37l-26,23.91s-.72-3.28-5.72-5.59Z" style="opacity:0.1"></path><polygon points="296.41 411.37 271.97 431.94 264.68 429.69 296.41 411.37" style="fill:#fff"></polygon><path d="M220.23,387.17l.22-.33,16.44,9.5-18.5-1.52C217.75,391.38,219.58,388.17,220.23,387.17Z" style="opacity:0.1"></path><polygon points="236.89 396.33 220.45 386.84 214.98 389.73 236.89 396.33" style="fill:#fafafa"></polygon><g style="opacity:0.30000000000000004"><path d="M321.28,359.81a.64.64,0,0,0,.31-1.19L280.16,334.7a.65.65,0,0,0-.87.23.64.64,0,0,0,.24.87L321,359.72A.62.62,0,0,0,321.28,359.81Z" style="fill:#455a64"></path><path d="M314.37,363.8a.65.65,0,0,0,.55-.32.63.63,0,0,0-.23-.87l-41.43-23.92a.64.64,0,1,0-.64,1.1l41.43,23.92A.62.62,0,0,0,314.37,363.8Z" style="fill:#455a64"></path><path d="M307.47,367.78a.64.64,0,0,0,.31-1.19l-41.42-23.92a.65.65,0,0,0-.88.24.64.64,0,0,0,.24.87l41.43,23.92A.61.61,0,0,0,307.47,367.78Z" style="fill:#455a64"></path><path d="M300.56,371.77a.63.63,0,0,0,.55-.32.64.64,0,0,0-.23-.87l-41.43-23.92a.65.65,0,0,0-.87.23.63.63,0,0,0,.23.87l41.43,23.92A.62.62,0,0,0,300.56,371.77Z" style="fill:#455a64"></path><path d="M293.66,375.76a.66.66,0,0,0,.55-.32.64.64,0,0,0-.24-.87l-41.42-23.92a.65.65,0,0,0-.88.23.64.64,0,0,0,.24.87l41.43,23.92A.62.62,0,0,0,293.66,375.76Z" style="fill:#455a64"></path><path d="M286.75,379.74a.63.63,0,0,0,.55-.32.64.64,0,0,0-.23-.87l-41.43-23.92a.64.64,0,0,0-.64,1.11l41.43,23.92A.61.61,0,0,0,286.75,379.74Z" style="fill:#455a64"></path><path d="M279.85,383.73a.63.63,0,0,0,.55-.32.64.64,0,0,0-.24-.87l-41.42-23.92a.64.64,0,1,0-.64,1.11l41.43,23.92A.72.72,0,0,0,279.85,383.73Z" style="fill:#455a64"></path><path d="M272.94,387.72a.65.65,0,0,0,.55-.32.63.63,0,0,0-.23-.87l-41.43-23.92a.64.64,0,0,0-.64,1.1l41.43,23.92A.62.62,0,0,0,272.94,387.72Z" style="fill:#455a64"></path><path d="M266,391.7a.63.63,0,0,0,.55-.32.64.64,0,0,0-.23-.87l-41.43-23.92a.66.66,0,0,0-.88.24.64.64,0,0,0,.24.87l41.43,23.92A.61.61,0,0,0,266,391.7Z" style="fill:#455a64"></path></g></g><g id="freepik--sheets--inject-73"><g id="freepik--character--inject-73"><polygon points="345.53 356.57 273.44 398.27 273.44 354.05 345.53 312.35 345.53 356.57" style="fill:#fafafa"></polygon><polygon points="223.46 369.42 273.44 398.27 273.44 354.05 223.46 325.2 223.46 369.42" style="fill:#f5f5f5"></polygon><polygon points="345.53 312.35 295.55 283.5 223.46 325.2 273.44 354.05 345.53 312.35" style="fill:#fff"></polygon></g><polygon points="307.96 348.91 273.44 368.85 252.72 356.88 273.44 370.08 307.96 348.91" style="opacity:0.1"></polygon><polygon points="328.68 348.09 273.44 379.99 232.01 356.07 273.44 381.19 328.68 348.09" style="opacity:0.1"></polygon><path d="M338.6,328.76s1.14,6.45.57,9.71c0,0-9.05-.22-24.3,4Z" style="opacity:0.1"></path><polygon points="338.6 328.76 314.87 342.46 341.12 334.88 338.6 328.76" style="fill:#fff"></polygon><path d="M308,367,282,390.9s-.73-3.29-5.72-5.6Z" style="opacity:0.1"></path><polygon points="307.96 366.98 283.53 387.55 276.23 385.3 307.96 366.98" style="fill:#fafafa"></polygon><path d="M231.79,342.78a3.28,3.28,0,0,1,.22-.32L248.45,352l-18.51-1.52C229.31,347,231.14,343.79,231.79,342.78Z" style="opacity:0.1"></path><polygon points="248.45 351.95 232.01 342.46 226.53 345.35 248.45 351.95" style="fill:#fafafa"></polygon><g style="opacity:0.30000000000000004"><path d="M334.69,311.87a.29.29,0,0,0,.25-.15.29.29,0,0,0-.11-.41L295.5,288.62a.29.29,0,0,0-.41.1.3.3,0,0,0,.11.41l39.34,22.7A.24.24,0,0,0,334.69,311.87Z" style="fill:#455a64"></path><path d="M331.46,313.73a.27.27,0,0,0,.25-.15.28.28,0,0,0-.11-.4l-39.33-22.7a.3.3,0,1,0-.3.52l39.34,22.69A.26.26,0,0,0,331.46,313.73Z" style="fill:#455a64"></path><path d="M328.23,315.6a.29.29,0,0,0,.25-.15.29.29,0,0,0-.11-.41L289,292.35a.29.29,0,0,0-.41.1.3.3,0,0,0,.11.41l39.34,22.7A.37.37,0,0,0,328.23,315.6Z" style="fill:#455a64"></path><path d="M325,317.46a.27.27,0,0,0,.25-.15.28.28,0,0,0-.11-.4l-39.33-22.7a.3.3,0,1,0-.3.52l39.34,22.69A.24.24,0,0,0,325,317.46Z" style="fill:#455a64"></path><path d="M321.77,319.33a.29.29,0,0,0,.25-.15.29.29,0,0,0-.11-.41l-39.33-22.69a.29.29,0,0,0-.41.1.3.3,0,0,0,.11.41l39.34,22.7A.37.37,0,0,0,321.77,319.33Z" style="fill:#455a64"></path><path d="M318.54,321.19a.27.27,0,0,0,.25-.15.28.28,0,0,0-.11-.4l-39.33-22.7a.3.3,0,0,0-.3.52l39.34,22.69A.24.24,0,0,0,318.54,321.19Z" style="fill:#455a64"></path><path d="M315.31,323.06a.29.29,0,0,0,.25-.15.29.29,0,0,0-.11-.41l-39.33-22.69a.29.29,0,0,0-.41.1.3.3,0,0,0,.11.41L315.16,323A.37.37,0,0,0,315.31,323.06Z" style="fill:#455a64"></path><path d="M312.08,324.92a.27.27,0,0,0,.25-.15.28.28,0,0,0-.11-.4l-39.33-22.7a.3.3,0,0,0-.3.52l39.34,22.69A.24.24,0,0,0,312.08,324.92Z" style="fill:#455a64"></path><path d="M308.85,326.79a.3.3,0,0,0,.15-.56l-39.34-22.69a.29.29,0,0,0-.41.1.3.3,0,0,0,.11.41l39.34,22.7A.37.37,0,0,0,308.85,326.79Z" style="fill:#455a64"></path><path d="M287.25,341.72a.3.3,0,0,0,.26-.15.29.29,0,0,0-.11-.4L245.57,317a.29.29,0,0,0-.4.11.29.29,0,0,0,.11.41l41.82,24.12A.28.28,0,0,0,287.25,341.72Z" style="fill:#455a64"></path><path d="M284,343.59a.32.32,0,0,0,.26-.15.31.31,0,0,0-.11-.41L242.34,318.9a.29.29,0,0,0-.4.11.29.29,0,0,0,.11.41l41.82,24.13A.42.42,0,0,0,284,343.59Z" style="fill:#455a64"></path><path d="M280.79,345.45a.3.3,0,0,0,.26-.15.29.29,0,0,0-.11-.4l-41.82-24.13a.3.3,0,0,0-.41.11.3.3,0,0,0,.11.41l41.82,24.12A.28.28,0,0,0,280.79,345.45Z" style="fill:#455a64"></path></g><path d="M281.63,316.29a.33.33,0,0,1-.17,0l-16.87-9.74a.34.34,0,0,1-.12-.47.33.33,0,0,1,.46-.12l16.87,9.73a.34.34,0,0,1,.12.47A.32.32,0,0,1,281.63,316.29Z" style="fill:#e0e0e0"></path><path d="M279.38,317.59a.41.41,0,0,1-.17,0l-16.86-9.74a.33.33,0,0,1-.13-.46.35.35,0,0,1,.47-.13L279.56,317a.34.34,0,0,1-.18.64Z" style="fill:#e0e0e0"></path><path d="M277.14,318.88a.33.33,0,0,1-.17,0L260.1,309.1a.34.34,0,1,1,.35-.59l16.86,9.73a.35.35,0,0,1,.13.47A.35.35,0,0,1,277.14,318.88Z" style="fill:#e0e0e0"></path><path d="M274.9,320.18a.41.41,0,0,1-.18-.05l-16.86-9.73a.34.34,0,0,1,.34-.6l16.87,9.74a.34.34,0,0,1,.12.47A.34.34,0,0,1,274.9,320.18Z" style="fill:#e0e0e0"></path><polygon points="284.62 317.68 305.57 329.77 296.59 334.95 275.64 322.86 284.62 317.68" style="fill:#C6993A"></polygon><polygon points="284.62 317.68 305.57 329.77 296.59 334.95 275.64 322.86 284.62 317.68" style="fill:#fff;opacity:0.5"></polygon><polygon points="278.26 323.09 296.22 333.47 295.55 329.29 290.04 327.92 289.93 322.98 278.26 323.09" style="fill:#fff"></polygon><path d="M295.39,326c.48.28.57.67.21.87a1.71,1.71,0,0,1-1.51-.12c-.48-.28-.57-.67-.22-.87A1.7,1.7,0,0,1,295.39,326Z" style="fill:#fff"></path><polygon points="253.54 312.69 294.35 336.25 292.1 337.54 251.3 313.99 253.54 312.69" style="fill:#C6993A"></polygon><polygon points="234.63 324.07 275.43 347.63 273.19 348.92 232.38 325.36 234.63 324.07" style="fill:#C6993A"></polygon><path d="M272.65,321.48a.34.34,0,0,1-.17-.05l-16.86-9.74a.34.34,0,1,1,.34-.59l16.86,9.74a.33.33,0,0,1,.13.46A.35.35,0,0,1,272.65,321.48Z" style="fill:#e0e0e0"></path><path d="M289.87,339.23a.33.33,0,0,1-.17,0l-40.82-23.61a.34.34,0,0,1-.12-.47.34.34,0,0,1,.47-.12L290,338.6a.33.33,0,0,1,.13.46A.35.35,0,0,1,289.87,339.23Z" style="fill:#e0e0e0"></path></g></g></g><g id="freepik--character--inject-73"><g id="freepik--character--inject-73"><path d="M393.4,350.1c.77,3,.1,11.22.1,11.22s-1.26,2.85-5.87,4.79l-2.21-11.41Z" style="fill:#263238"></path><polygon points="387.63 366.11 377.39 362.88 374.83 353.85 386.36 359.52 387.63 366.11"></polygon><path d="M376.72,339.81l-.08-2.14c-1.37.69-4.3,11.89-8.33,19.59-3.69,7-11.11,11-13.5,14.08-3.19,4.1,3.17,9.28,13.25,7,5-1.13,12.57-4.43,14.59-7.83s2.65-9.64,4.31-12.15,5.62-5.42,6.44-8.26a15.38,15.38,0,0,0-.11-7.83c-.82-2.57-1.55-5.68-2.42-5.39l0,2c-.66,1.38-3.09,3-8.19,3.35C380.22,342.36,377.86,342,376.72,339.81Z" style="fill:#37474f"></path><path d="M447.32,341.45c2.43,0,.94,9.45,1.63,15.51.75,6.49,2.93,11.21,3.6,16.53.77,6.08.26,8.64-1.87,13.67-1.65,3.91-10.13,9.34-13.43,3.81s-4.07-11.88-3.77-18c.32-6.27.64-10.85.72-15.62.06-4.2-3.29-14-.14-14.67l.18,1.64c1.15,2.25,12,3.69,13.21-.68Z" style="fill:#37474f"></path><path d="M447.32,341.45s.9-43.85-1.59-60.56c-2.14-14.34-4.92-20.83-5.37-24.09,0,0-2.61-33.77-3.22-62.44-.3-13.8-1.69-23.61-9.44-39.94l-47.42,11.34c-.9,7.3-4.79,56.67-5.09,99.78-.26,37.75,1.85,70.07-1.53,78.77a143.18,143.18,0,0,1-6.43,13.85c-.68,1.3-2.44,3.7-3.34,5-2.94,3.51,1.47,5.21,6.05,4.55,4.83-.7,6.58-2.44,8.34-4.55,1.56-1.86,4.28-8.63,5.72-10.63,4.84-6.77,5.86-8.39,6.68-10.37a7.28,7.28,0,0,0,.19-5.28c.34-4.57,8.48-43.58,8.5-56.9,0-6.34-.51-15.07-.51-15.07l7.16-44c3.08,10.94,7.77,32.05,9.64,42.48,2.28,12.75,10.39,47.63,14.78,64.58,1.43,5.51,3.07,10.63,3.62,14.78,0,0,.18,1.64.18,1.64.12,1.89,1.59,21.88,2.38,26.13,1.67,8.87,9.56,7.66,10.74.46,1-6.14.14-24.94.09-27.27Z" style="fill:#ffa8a7"></path><path d="M381.52,150.59l.08,3.53c-5.59,17.18-8,53.51-7.66,79.32.4,35,.28,106,.28,106s-.78,3.87,6.4,4.11,11.13-6,11.13-6,8.07-45.79,8.64-55.88a102.42,102.42,0,0,0-.18-16.4L406.14,223s8.13,39.91,9.11,44.92,17.46,84.21,17.46,84.21,1.91,2.91,8.77,1.91,8.18-3.95,8.18-3.95-1.75-60.88-3.19-71-4.86-17.91-5.41-24.55,1.26-36,1.1-50.37c-.11-9.83.45-16.83-.91-24-2.74-14.5-8.41-21.84-10.77-27.49l-.28-3C422.24,155.92,395.56,159.61,381.52,150.59Z" style="fill:#455a64"></path><path d="M424.61,152.6c6.93,14.69,12.26,27.91,12.75,51.39.11,5.06.16,10,.21,14.86.17,16.86.32,31.41,2.71,38.5.51,1.51,1.07,3,1.66,4.65.74,2,1.53,4.17,2.32,6.56a91.69,91.69,0,0,1,2.21,10.51c.23,1.62.42,3.46.57,5.4a117.46,117.46,0,0,0-6.21-22.06c-.59-1.62-1.16-3.16-1.67-4.68-2.45-7.27-2.6-21.91-2.77-38.87-.05-4.81-.1-9.79-.21-14.85-.49-23.3-5.79-36.4-12.69-51Z" style="fill:#37474f"></path><path d="M406.14,223l-5.63-26.36s-9.33-2.32-13.74-8c0,0,.76,6.91,10.37,10.83L403,224.4l-.93,28Z" style="fill:#37474f"></path><path d="M432.29,56.14c1.56,4.34,1.21,9.08,1.13,13.69a9.89,9.89,0,0,0,.69,4.62,3.59,3.59,0,0,0,3.82,2.12c1.52-.38,2.32-2.67,1.08-3.64a3.35,3.35,0,0,1,1.72,6.35c2.84.52,4.34,4.3,2.92,6.81a5.9,5.9,0,0,1-7.57,2.07c1.06,2.4,1.76,5.64-1.38,8.46-2.77,2.48-7.17,2.89-9.23,1.27-1.79,3.28-3.92,2.78-7.65,2.84a10.82,10.82,0,0,1-9.31-5.27c0,4.12-4.92,6.39-8.47,6.11a9.22,9.22,0,0,1-6.18-3.1,8.71,8.71,0,0,1-14.37-8.08A7.57,7.57,0,0,1,375.22,77c-2.58-1.11-4.22-3.71-3-6.56.63,1.9,2.11,2.38,4.11,2,3.88-.67,4.69-4.33,4.94-6.56.23-2,2.22-1.35,3.66-2.79a18.37,18.37,0,0,1,5.49-3.72,23.24,23.24,0,0,1,3.15-1.15,25,25,0,0,0,3-.76c2.09-.92,4.11-2.11,6.23-3q3.41-1.45,6.9-2.69c4.91-1.72,11.81-5,16.87-2.39A12.34,12.34,0,0,1,432.29,56.14Z" style="fill:#263238"></path><path d="M388.52,96.18c-9.14-3.73-12.76-1.38-16.5,8.26-3.85,9.93-11.7,33.37-14.31,40.67,1.26,4.07,7.7,8.38,11.94,6.65s17.76-33.26,17.76-33.26Z" style="fill:#C6993A"></path><path d="M388.52,96.18c-9.14-3.73-12.76-1.38-16.5,8.26-3.85,9.93-11.7,33.37-14.31,40.67,1.26,4.07,7.7,8.38,11.94,6.65s17.76-33.26,17.76-33.26Z" style="opacity:0.15"></path><path d="M414.15,96.06,428,97.49c-2.3,14.68,4.95,29.37,4.95,29.37.33,9.39,1.35,20.26-2.74,22.44a17.73,17.73,0,0,1-.46,3.65c-10.33,5.35-33.31,8.58-47.17,1.15l-1-4c-3.48-2.23-2.72-12-3.36-19.1-9.12-12.4,3.28-28.3,10.36-34.78l8.79-.1Z" style="fill:#C6993A"></path><path d="M414.15,96.06,428,97.49c-2.3,14.68,4.95,29.37,4.95,29.37.33,9.39,1.35,20.26-2.74,22.44a17.73,17.73,0,0,1-.46,3.65c-10.33,5.35-33.31,8.58-47.17,1.15l-1-4c-3.48-2.23-2.72-12-3.36-19.1-9.12-12.4,3.28-28.3,10.36-34.78l8.79-.1Z" style="opacity:0.30000000000000004"></path><path d="M381.6,154.12l-.08-4.06c14,9,40.68,5.49,48.64-.76l.32,3.36s-3.61,6.42-23.73,7.19S381.6,154.12,381.6,154.12Z" style="fill:#37474f"></path><path d="M374.5,56.66a4.74,4.74,0,0,1,.35-2.55c.33-.75,1.13-1.33,1.4-2,.55-1.4-1.07-3.42-1.2-4.89a5.27,5.27,0,0,1,2.2-4.5A9.21,9.21,0,0,1,382.13,41a14.92,14.92,0,0,1,5.15.55c4.71-10.76,30.43-11.26,35.37,6.78a16.77,16.77,0,0,1,5.38,5c4.13,6.56,2.41,16.07-1.61,22.29S414.24,88.84,414.2,91.3l-30-30.82s-2.54,4-5.45,4.17-3.22-2.12-3.22-2.12a1.32,1.32,0,0,0,2.25-1.2C377.49,60,374.9,59.35,374.5,56.66Z" style="fill:#263238"></path><path d="M381.14,57.28c-1.08,4.54-.94,9.35-.87,14,.2,13.52,4.38,16.9,6.49,17.88s6.19.42,10.16-.23l.07,7.16-4.23,0s-8.58,10.69,2.26,11.73c16.06,1.54,24.54-11.24,24.54-11.24l-5.41-.56.1-17.75a5.62,5.62,0,0,0,6.3-.4c3.53-2.67,4.43-8,1.91-10.66s-5.77-2.35-8.63.75c-4.41,5.63-4.79-.37-4.71-3,.16-4.72-1.93-13.45-10.57-12.61A6.8,6.8,0,0,0,395,53.88a3.82,3.82,0,0,1-5-.17C387.27,51,382.49,51.66,381.14,57.28Z" style="fill:#ffa8a7"></path><path d="M386.7,65.9A1.62,1.62,0,1,1,385,64.3,1.64,1.64,0,0,1,386.7,65.9Z" style="fill:#263238"></path><path d="M400.8,66.24A1.74,1.74,0,1,1,399,64.52,1.77,1.77,0,0,1,400.8,66.24Z" style="fill:#263238"></path><path d="M397.34,77.83l-6.48,2.09A3.32,3.32,0,0,0,395,82.37,3.73,3.73,0,0,0,397.34,77.83Z" style="fill:#b16668"></path><path d="M393.72,82.5a3.23,3.23,0,0,1,3.18-3.23,4.71,4.71,0,0,1,.54,0,3.62,3.62,0,0,1-2.4,3.05A3.14,3.14,0,0,1,393.72,82.5Z" style="fill:#f28f8f"></path><path d="M382.17,61.23l4.41-2.29a2.39,2.39,0,0,0-3.33-1.09A2.57,2.57,0,0,0,382.17,61.23Z" style="fill:#263238"></path><path d="M397.92,59.69l4.87,1a2.39,2.39,0,0,0-1.88-3A2.59,2.59,0,0,0,397.92,59.69Z" style="fill:#263238"></path><polygon points="392.79 64.31 392.78 75.02 387.13 74.22 392.79 64.31" style="fill:#f28f8f"></polygon><path d="M396.92,88.92c4.18-.54,12.8-3,14.16-6.57A9.17,9.17,0,0,1,408,86.84c-2.58,2.27-11.09,4.7-11.09,4.7Z" style="fill:#f28f8f"></path><path d="M405,62.33l12.65,3.22a8.28,8.28,0,0,0-3.27,1.89L405,64.8Z" style="fill:#455a64"></path><path d="M378.42,62.27a3,3,0,0,0,.65,1.6,1.26,1.26,0,0,1,.27.57,27.91,27.91,0,0,0,.85,4.3,4.73,4.73,0,0,0,4.49,3.18,7,7,0,0,0,1.56-.08l.12,0a4.67,4.67,0,0,0,1.29-.46l.08,0,.11-.06.14-.09.12-.09.15-.11.13-.11.26-.24A5.93,5.93,0,0,0,389.71,69c.71-1.47.61-3.56,1.7-3.76l.13,0h.14c1.48.07,1.24,2.34,2,4a5.53,5.53,0,0,0,5.3,3.43h.75a6.07,6.07,0,0,0,.77-.08l.25,0,.23-.06.15,0A4.17,4.17,0,0,0,402,72l.3-.19a4.15,4.15,0,0,0,.52-.42,5.19,5.19,0,0,0,1-1.48,26.86,26.86,0,0,0,1-4.19,1.87,1.87,0,0,1,.26-.61,3,3,0,0,0,.78-1.5,1.33,1.33,0,0,0-.85-1.37l-.79-.13a24.11,24.11,0,0,0-7.82-.16c-2.5.6-3.38,1.36-4.76,1.3s-2.1-.93-4.43-1.77a21.16,21.16,0,0,0-7.3-.62l-.74.05A1.26,1.26,0,0,0,378.42,62.27Zm16.25,2.09a2.11,2.11,0,0,1,.72-.56l.13-.06.07,0,.36-.15.32-.12a8.35,8.35,0,0,1,1.07-.3l.43-.08a9.84,9.84,0,0,1,1.09-.14h.26c2.39-.12,3.86.49,4.38,1s.22,2.72,0,3.83l0,.09a.19.19,0,0,0,0,.08q0,.21-.12.45l-.09.28h0c0,.15-.11.3-.18.46h0a.77.77,0,0,1-.07.16l0,.1-.06.1a.54.54,0,0,1-.07.13,1.09,1.09,0,0,1-.08.15l-.1.15-.11.16a3.76,3.76,0,0,1-3.39,1.46,4.61,4.61,0,0,1-3.48-1.46h0a5,5,0,0,1-1.08-2.3C394.3,66.49,394.18,65,394.67,64.36Zm-14-1.63a1.86,1.86,0,0,1,.6-.35l0,0a1.14,1.14,0,0,1,.26-.09l.16-.05.14,0,.08,0h0l.13,0,.55-.07.3,0h1a9.46,9.46,0,0,1,1.1.14c1.69.3,3.44,1.15,3.88,1.86s.29,2.17,0,3.4a5.81,5.81,0,0,1-.25.83.25.25,0,0,1,0,.07l0,.08,0,0a1,1,0,0,1,0,.1l-.1.21-.1.17,0,.06-.08.12-.06.1h0a3.73,3.73,0,0,1-3.6,1.5,4.11,4.11,0,0,1-1.77-.48,5.07,5.07,0,0,1-2.2-3.72C380.41,65.42,380.15,63.2,380.67,62.73Z" style="fill:#455a64"></path><path d="M396,159.82c.39-.52,1.6.56,4.18,1.13,3.29.74,4.57.62,8.07,1.53a17,17,0,0,0,4.86.9L400.41,166a14.17,14.17,0,0,1-3.57-2.17C395.1,162.25,395.51,160.49,396,159.82Z" style="fill:#ffa8a7"></path><polygon points="349.51 129.97 394.62 140.44 406.54 193.03 405.76 194.07 362.6 183.29 348.74 131.01 349.51 129.97" style="fill:#fafafa"></polygon><path d="M394.62,140.44s-12.85-3.82-21.1-6.42c-4.85-1.53-16.09-7.07-18.17-9.63a11.79,11.79,0,0,0-1,6.62Z" style="fill:#e0e0e0"></path><polygon points="348.74 131.01 393.84 141.49 405.76 194.07 362.6 183.29 348.74 131.01" style="fill:#ebebeb"></polygon><path d="M353.65,149.54c-2.56,3.11-2.45,5.57-1.51,9.66s3.61,9,5.11,10.3,4.3,3.2,7.45,2.56,3.25-4.66,4.66-6.34c2.26-2.69-.78-4.69-3.71-5.09-6.92-.95-10.23-4.43-10.23-4.43Z" style="fill:#ffa8a7"></path><polygon points="393.84 141.49 405.76 194.07 406.54 193.03 394.62 140.44 393.84 141.49" style="fill:#e0e0e0"></polygon><path d="M391.41,166.08a48.4,48.4,0,0,0,9-.09l12.72-2.61c2.45,0,8-1.56,14.22-4A101.29,101.29,0,0,0,439,154a263.25,263.25,0,0,0-9.82-27.23c-5.33-7.47-7.94-22.53-2-29.34,10.58-.54,14.28,4.9,18.39,15.23,2.84,7.11,11,32.34,13.23,41,1.28,5,1.77,9.38-3.66,12.49-4.84,2.76-20,7.6-30.72,10.64a91.15,91.15,0,0,1-16.31,3.36c-12.74,1.14-16.38.25-19.66-4.15-1.42-1.91-1.8-4.8-3-6.37-1.07-1.4-1.56-2.23-1.13-3.07C385.18,164.86,387.34,165.74,391.41,166.08Z" style="fill:#ffa8a7"></path><path d="M427.19,97.4c5-1.08,9-3.64,12.66.87,3.84,4.71,4.6,7.69,9.13,21.07,4.7,13.87,9,31.39,9,31.39s-12.11-1.2-19,3.24l-10.71-26.6s-5.61-9.07-5.24-17.74S427.19,97.4,427.19,97.4Z" style="fill:#C6993A"></path><path d="M427.19,97.4c5-1.08,9-3.64,12.66.87,3.84,4.71,4.6,7.69,9.13,21.07,4.7,13.87,9,31.39,9,31.39s-12.11-1.2-19,3.24l-10.71-26.6s-5.61-9.07-5.24-17.74S427.19,97.4,427.19,97.4Z" style="opacity:0.15"></path><path d="M439,154s6.74-2.25,12.63-1.37,7.5,2.56,7.5,2.56,0-4.82-1.77-6.88a25.54,25.54,0,0,0-19,4.06Z" style="fill:#C6993A"></path><path d="M439,154s6.74-2.25,12.63-1.37,7.5,2.56,7.5,2.56,0-4.82-1.77-6.88a25.54,25.54,0,0,0-19,4.06Z" style="opacity:0.30000000000000004"></path></g></g></svg>