<svg xmlns="http://www.w3.org/2000/svg" viewBox="0 0 48.74 38"><defs><style>.cls-1{fill:#c59838;}.cls-2{fill:none;}</style></defs><title>Asset 1</title><g id="Layer_2" data-name="Layer 2"><g id="Layer_1-2" data-name="Layer 1"><polygon class="cls-1" points="8.32 22.09 14.26 11.79 14.26 11.79 14.26 11.79 14.26 11.79 13.08 9.73 10.7 9.73 7.13 15.91 4.75 11.79 9.51 3.56 9.51 3.56 9.51 3.56 9.51 3.56 8.32 1.5 5.94 1.5 0 11.79 5.94 22.09 8.32 22.09"/><polyline class="cls-1" points="15.45 22.09 15.45 22.09 14.26 20.03 19.02 11.79 14.26 3.56 15.45 1.5 17.83 1.5 23.77 11.79 17.83 22.09 15.45 22.09 15.45 22.09"/><polygon class="cls-1" points="24.96 17.97 26.15 15.91 38.04 15.91 39.23 17.97 38.04 20.03 26.15 20.03 24.96 17.97"/><polygon class="cls-1" points="24.96 26.21 26.15 24.15 24.96 22.09 22.59 22.09 20.21 26.21 26.15 36.5 38.04 36.5 39.23 34.44 38.04 32.38 28.53 32.38 24.96 26.21"/><polygon class="cls-1" points="47.55 36.5 45.17 36.5 39.23 26.21 45.17 15.91 47.55 15.91 48.73 17.97 43.98 26.21 48.73 34.44 47.55 36.5"/><rect class="cls-2" width="48.74" height="38"/></g></g></svg>